<?xml version="1.0" encoding="UTF-8" standalone="no"?>
<!-- Generator: Adobe Illustrator 18.0.0, SVG Export Plug-In . SVG Version: 6.00 Build 0)  -->

<svg
   xmlns:ns="&amp;ns_sfw;"
   xmlns:dc="http://purl.org/dc/elements/1.1/"
   xmlns:cc="http://creativecommons.org/ns#"
   xmlns:rdf="http://www.w3.org/1999/02/22-rdf-syntax-ns#"
   xmlns:svg="http://www.w3.org/2000/svg"
   xmlns="http://www.w3.org/2000/svg"
   xmlns:sodipodi="http://sodipodi.sourceforge.net/DTD/sodipodi-0.dtd"
   xmlns:inkscape="http://www.inkscape.org/namespaces/inkscape"
   version="1.1"
   id="Livello_1"
   x="0px"
   y="0px"
   viewBox="0 0 60 60"
   enable-background="new 0 0 60 60"
   xml:space="preserve"
   inkscape:version="0.91 r13725"
   sodipodi:docname="azienda--3.svg"><defs
     id="defs21" /><sodipodi:namedview
     pagecolor="#ffffff"
     bordercolor="#666666"
     borderopacity="1"
     objecttolerance="10"
     gridtolerance="10"
     guidetolerance="10"
     inkscape:pageopacity="0"
     inkscape:pageshadow="2"
     inkscape:window-width="755"
     inkscape:window-height="480"
     id="namedview19"
     showgrid="false"
     inkscape:zoom="3.9333333"
     inkscape:cx="30"
     inkscape:cy="30"
     inkscape:window-x="0"
     inkscape:window-y="0"
     inkscape:window-maximized="0"
     inkscape:current-layer="Livello_1" /><metadata
     id="metadata3"><ns:sfw><ns:slices /><ns:sliceSourceBounds
         width="59.5"
         height="41.2"
         x="0.3"
         y="8.7"
         bottomLeftOrigin="true" /></ns:sfw><rdf:RDF><cc:Work
         rdf:about=""><dc:format>image/svg+xml</dc:format><dc:type
           rdf:resource="http://purl.org/dc/dcmitype/StillImage" /></cc:Work></rdf:RDF></metadata><path
     id="polygon7"
     style="fill:#ffffff"
     d="m 37,10.099609 -16,14.300782 -7.5,-7.5 c -0.3,-0.3 -0.800781,-0.5 -1.300781,-0.5 -0.5,0 -0.898828,0.2 -1.298828,0.5 L 0.30078125,27.5 l 0,3.699219 L 1,31.800781 12.199219,20.599609 l 7.40039,7.5 c 0.7,0.7 1.8,0.69961 2.5,0.09961 l 15.09961,-13.398438 0,-4.40039 L 37,10.099609 Z m 5.208984,4.25586 C 40.193359,14.317969 38.15,14.899609 36.5,16.099609 35.3,17.099609 34.299219,18.4 33.699219,20 l 0.21289,0.488281 -0.0039,0.0039 L 33.699219,20 c -0.131308,0.328269 -0.232109,0.671663 -0.320313,1.021484 L 29,25.400391 l 0,16.298828 2.203125,0 c -2.914122,1.122521 -5.544867,2.469579 -5.302734,6.101562 0.1,1.1 0.598828,2.3 1.298828,3.5 L 37.5,51.199219 l 5.300781,0 L 41.699219,48.5 c -0.1,0.5 -0.398438,1.000391 -0.398438,1.900391 -2,-2.6 -3.20039,-7.201172 -3.90039,-10.201172 0.3,-0.3 0.399609,-0.498828 0.599609,-0.798828 l -0.04492,-0.111329 C 38.219693,38.825017 38.40729,38.357044 38.5,37.800781 c 0.3,0.4 0.600391,0.698438 0.900391,0.898438 l -1.800782,-4.398438 c -0.8,-1.1 -1.299609,-2.50039 -1.599609,-3.90039 l -1.5,-3.701172 0,0.5 c 0.1,1.7 0.2,3.10039 0.5,4.40039 -0.08168,-0.08168 -0.164411,-0.10487 -0.246094,-0.162109 l -0.05469,-0.136719 c -1,-0.6 -1.59961,-2.100781 -1.59961,-3.800781 l 0,-0.5 C 33.099609,26.2 33.6,25.299219 34,25.199219 l -0.01953,-0.05078 -0.396485,-0.832032 c 0.01263,-0.02116 0.02611,-0.04159 0.03906,-0.0625 l 0.357422,0.894532 0.11914,0.251953 c 0.2,0 0.4,0.298828 0.5,1.298828 l 1.5,3.701172 c -0.6,-2.3 -0.599218,-4.6 -0.699218,-5.5 l 0,-0.400391 0,-0.199219 0,-0.300781 -0.771485,-1.814453 c 0.0041,-0.009 0.0076,-0.01835 0.01172,-0.02734 l 0.759766,1.742188 0,-0.09961 c 0.1,-1.7 1.6,-1.901562 3.5,-2.101562 1.9,-0.2 4.2,-0.4 6,-2 0.8,0.5 1.599218,1.2 2.199218,2 l -0.800781,-1.957031 0.900391,2.158203 c 0.7,0.8 1.20039,1.799218 1.40039,2.699218 l 0,0.300782 0,0.298828 1.201172,3 0,-0.898438 c -0.2,-2.5 1.098828,-2.101562 1.298828,-0.101562 0.1,1.1 -0.1,2.201562 -0.5,3.101562 L 50.701172,30.546875 50.5,30.199219 c -0.3,0.7 -0.800391,1.20039 -1.400391,1.40039 0.3,-1.1 0.5,-2.3 0.5,-3.5 l -1.199218,-3 c 0.1,2 0.20039,7.100782 -2.09961,9.800782 -0.3,0.4 -0.9,0.898828 -1.5,1.298828 -0.4,0.2 -0.801172,0.40039 -1.201172,0.40039 -0.4,-0.1 -0.598828,-1.298828 -1.298828,-1.298828 -0.7,0 -0.801172,1.198828 -1.201172,1.298828 -0.2,0 -0.3,3.91e-4 -0.5,-0.09961 -0.9,-0.3 -1.90039,-0.999609 -2.40039,-1.599609 -0.2,-0.3 -0.3,-0.501172 -0.5,-0.701172 L 39.5,38.599609 c 0.7,0.5 1.500391,0.800391 2.400391,0.900391 1.3,0.2 2.698828,-0.199219 3.798828,-1.199219 0.2,-0.1 0.3,-0.3 0.5,-0.5 0.3,1 0.70039,1.8 1.40039,2.5 -0.09598,0.479926 -0.191124,1.062374 -0.287109,1.726563 L 47.300781,42 C 46.900781,44.1 46.3,46.400781 45.5,48.300781 l 1.199219,2.798828 4.40039,0 7.59961,0 c 0.1,-0.2 0.200781,-0.499218 0.300781,-0.699218 l -3.400391,-8.201172 c -1.8,-0.8 -3.899218,-1.29961 -5.699218,-2.09961 -1.8,-0.8 -2.501172,-2.099609 -2.701172,-3.599609 l 0,-0.09961 c 1.2,-1 2.101172,-2.4 2.701172,-4 0.5,-0.2 0.998828,-0.5 1.298828,-1 l -0.04492,-0.07813 C 51.618712,30.731121 51.904026,29.963376 52,29.099609 52.2,28.299609 52.2,27.3 52,26.5 c -0.1,-1 -0.499609,-1.9 -1.099609,-2.5 0,-0.6 -0.200782,-1.099219 -0.300782,-1.699219 -0.596918,-4.277914 -3.27357,-6.77267 -6.353515,-7.585937 l -0.04687,-0.115235 c -0.65,-0.15 -1.31836,-0.23164 -1.990235,-0.24414 z M 12.099609,23.800781 9.8007812,26 l 0,15.699219 8.1992188,0 0,-11.5 -5.900391,-6.398438 z m 15.5,2.898438 -7.099609,6.201172 -1.300781,-1.300782 0,10.09961 8.40039,0 0,-15 z M 8.4003906,27.900391 0.90039062,35.099609 0.30078125,34.5 l 0,7.199219 8.09960935,0 0,-13.798828 z M 36.5,35.482422 c 0.209545,0.262732 0.429346,0.514392 0.699219,0.716797 0,0.1 0.101172,0.200781 0.201172,0.300781 l 0.199218,0.199219 c 0,0.4 -0.09922,0.801172 -0.199218,1.201172 -0.16629,0.554298 -0.471274,1.038756 -0.900391,1.453125 l 0,-3.871094 z m 6,4.818359 -0.09961,0.199219 -1.09961,2.099609 3,7.300782 c -0.2,-0.8 -0.501562,-1.300782 -0.601562,-1.800782 0.3,-0.6 0.20039,-1.699609 -0.09961,-2.099609 0.2,-0.2 0.401172,-0.5 0.701172,-1 l -0.04102,-0.09961 C 44.339788,44.76593 44.419977,44.660046 44.5,44.5 c 0.3,-0.1 0.699609,0.100781 1.099609,0.800781 0,0.1 0.09961,0.1 0.09961,0 l -3.199219,-5 z m 1.800781,9.59961 -3,-7.201172 -1,2 0.0332,0.06836 0.06641,0.0332 c -0.01243,0.01243 -0.01955,0.02468 -0.03125,0.03711 l 0.03125,0.0625 c 0.2,-0.2 0.399609,-0.300782 0.599609,-0.300782 0.3,0.7 0.7,1.1 1,1.5 -0.3,0.4 -0.4,1.59961 0,2.09961 0,0.1 -0.09961,0.200781 -0.09961,0.300781 L 43,51.199219 l 0.800781,0 1,0 1.898438,0 L 45.5,48.400391 c -0.3,0.7 -0.699609,1.4 -1.099609,2 l 0.02734,0.07227 -0.02734,0.02734 c 0,-0.2 -0.09961,-0.399609 -0.09961,-0.599609 z m -3.93164,-5.0625 -0.03516,-0.07031 -0.134765,-0.06836 -0.398438,0.800781 0.09961,-0.09961 c 0.187572,-0.187572 0.292109,-0.374928 0.46875,-0.5625 z m 9.230468,-3.9375 2,6.099609 -1.865234,0.685547 -0.03516,-0.08594 -1.298828,0.5 0,2.900391 -0.800782,-3.5 1.763672,-0.587891 0.03711,0.08789 1.40039,-0.5 -1.201172,-5.599609 z m -15.970703,0.798828 0.0098,0 1.060547,2.5 0.605469,-2.5 0.05078,0 L 35,44.900391 l 0.900391,2 -0.04883,-0.01367 0.04883,0.113281 2,0.699219 -0.5,3.201172 0,-0.09961 L 36.199219,48 34,47.199219 34.699219,44.300781 33.628906,41.699219 Z m 3.771485,9.101562 -0.09961,-2.40039 -1,-0.400391 1.09961,2.800781 z M 35.851562,46.886719 35,44.900391 l -0.199219,1.699218 1.050781,0.28711 z M 55.599609,42.099609 59,50.300781 c 0.5,-0.9 0.699219,-1.900781 0.699219,-2.800781 0,-2.9 -1.79961,-4.400391 -4.09961,-5.400391 z" /></svg>