<?xml version="1.0" encoding="utf-8"?>
<!-- Generator: Adobe Illustrator 18.0.0, SVG Export Plug-In . SVG Version: 6.00 Build 0)  -->
<!DOCTYPE svg PUBLIC "-//W3C//DTD SVG 1.1//EN" "http://www.w3.org/Graphics/SVG/1.1/DTD/svg11.dtd" [
	<!ENTITY ns_extend "http://ns.adobe.com/Extensibility/1.0/">
	<!ENTITY ns_ai "http://ns.adobe.com/AdobeIllustrator/10.0/">
	<!ENTITY ns_graphs "http://ns.adobe.com/Graphs/1.0/">
	<!ENTITY ns_vars "http://ns.adobe.com/Variables/1.0/">
	<!ENTITY ns_imrep "http://ns.adobe.com/ImageReplacement/1.0/">
	<!ENTITY ns_sfw "http://ns.adobe.com/SaveForWeb/1.0/">
	<!ENTITY ns_custom "http://ns.adobe.com/GenericCustomNamespace/1.0/">
	<!ENTITY ns_adobe_xpath "http://ns.adobe.com/XPath/1.0/">
]>
<svg version="1.1" id="Livello_1" xmlns:x="&ns_extend;" xmlns:i="&ns_ai;" xmlns:graph="&ns_graphs;"
	 xmlns="http://www.w3.org/2000/svg" xmlns:xlink="http://www.w3.org/1999/xlink" x="0px" y="0px" viewBox="0 0 17 17"
	 enable-background="new 0 0 17 17" xml:space="preserve">
<metadata>
	<sfw  xmlns="&ns_sfw;">
		<slices></slices>
		<sliceSourceBounds  width="17" height="17" x="21" y="22" bottomLeftOrigin="true"></sliceSourceBounds>
	</sfw>
</metadata>
<path fill="#FFFFFF" d="M17,1h-2.3c0-0.2,0-0.3,0-0.5V0H2.3v0.5c0,0.2,0,0.3,0,0.5H0l0,0.5c0,1.1,0.1,2.2,0.2,3.3
	c0.4,2.9,1.3,6.3,2.8,7.1C3.2,12,3.4,12,3.6,12c0.2,0,0.5-0.1,0.7-0.2l0.2-0.1C5.3,13,6.5,13.8,8,14v2H5v1h7v-1H9v-2
	c1.4-0.1,2.6-0.9,3.5-2.3l0.2,0.2c0.2,0.1,0.4,0.2,0.7,0.2c0.2,0,0.4,0,0.6-0.1c1.5-0.7,2.4-4.2,2.8-7.1C16.9,3.7,17,2.6,17,1.5
	C17,1.5,17,1,17,1z M4,10.8L3.8,11c-0.1,0.1-0.2,0.1-0.3,0c-0.8-0.4-1.8-2.7-2.2-6.3C1.1,3.8,1,2.9,1,2h1.3c0.1,2.9,0.5,6.5,1.8,9
	C4.1,11,4,10.8,4,10.8z M8.5,13C4,13,3.3,5,3.3,1h10.5C13.7,5.7,12.9,13,8.5,13z M15.8,4.7c-0.4,3.6-1.5,5.9-2.2,6.3
	c-0.1,0.1-0.2,0.1-0.3,0L13,10.8L12.9,11c1.1-2,1.7-5.1,1.8-9H16C16,2.9,15.9,3.8,15.8,4.7z"/>
</svg>
