<?xml version="1.0" encoding="utf-8"?>
<!-- Generator: Adobe Illustrator 18.0.0, SVG Export Plug-In . SVG Version: 6.00 Build 0)  -->
<!DOCTYPE svg PUBLIC "-//W3C//DTD SVG 1.1//EN" "http://www.w3.org/Graphics/SVG/1.1/DTD/svg11.dtd" [
	<!ENTITY ns_extend "http://ns.adobe.com/Extensibility/1.0/">
	<!ENTITY ns_ai "http://ns.adobe.com/AdobeIllustrator/10.0/">
	<!ENTITY ns_graphs "http://ns.adobe.com/Graphs/1.0/">
	<!ENTITY ns_vars "http://ns.adobe.com/Variables/1.0/">
	<!ENTITY ns_imrep "http://ns.adobe.com/ImageReplacement/1.0/">
	<!ENTITY ns_sfw "http://ns.adobe.com/SaveForWeb/1.0/">
	<!ENTITY ns_custom "http://ns.adobe.com/GenericCustomNamespace/1.0/">
	<!ENTITY ns_adobe_xpath "http://ns.adobe.com/XPath/1.0/">
]>
<svg version="1.1" id="Livello_1" xmlns:x="&ns_extend;" xmlns:i="&ns_ai;" xmlns:graph="&ns_graphs;"
	 xmlns="http://www.w3.org/2000/svg" xmlns:xlink="http://www.w3.org/1999/xlink" x="0px" y="0px" viewBox="0 0 17 17"
	 enable-background="new 0 0 17 17" xml:space="preserve">
<metadata>
	<sfw  xmlns="&ns_sfw;">
		<slices></slices>
		<sliceSourceBounds  width="16.9" height="17" x="21" y="22" bottomLeftOrigin="true"></sliceSourceBounds>
	</sfw>
</metadata>
<path fill="#FFFFFF" d="M16.5,1.8l-1.4-1.4c-0.6-0.6-1.6-0.6-2.1,0L5.4,8l-1.7,5.3L9,11.5L16.5,4c0.3-0.3,0.4-0.7,0.4-1.1
	S16.8,2.1,16.5,1.8z M5.6,10.8l0.6-2l1.9,1.9l-1.9,0.7L5.6,10.8z M6.8,8l4-4l2.1,2.1l-4,4C8.9,10.1,6.8,8,6.8,8z M11.5,3.3l0.7-0.7
	l2.1,2.1l-0.7,0.7C13.6,5.4,11.5,3.3,11.5,3.3z M15.8,3.3L15.1,4L13,1.9l0.7-0.7c0.2-0.2,0.5-0.2,0.7,0l1.4,1.4
	c0.1,0.1,0.1,0.2,0.1,0.4S15.9,3.2,15.8,3.3z M15,7.5h1V17H0V2h7.5v1H1v13h14V7.5z"/>
</svg>
