<?xml version="1.0" encoding="utf-8"?>
<!-- Generator: Adobe Illustrator 18.0.0, SVG Export Plug-In . SVG Version: 6.00 Build 0)  -->
<!DOCTYPE svg PUBLIC "-//W3C//DTD SVG 1.1//EN" "http://www.w3.org/Graphics/SVG/1.1/DTD/svg11.dtd" [
	<!ENTITY ns_extend "http://ns.adobe.com/Extensibility/1.0/">
	<!ENTITY ns_ai "http://ns.adobe.com/AdobeIllustrator/10.0/">
	<!ENTITY ns_graphs "http://ns.adobe.com/Graphs/1.0/">
	<!ENTITY ns_vars "http://ns.adobe.com/Variables/1.0/">
	<!ENTITY ns_imrep "http://ns.adobe.com/ImageReplacement/1.0/">
	<!ENTITY ns_sfw "http://ns.adobe.com/SaveForWeb/1.0/">
	<!ENTITY ns_custom "http://ns.adobe.com/GenericCustomNamespace/1.0/">
	<!ENTITY ns_adobe_xpath "http://ns.adobe.com/XPath/1.0/">
]>
<svg version="1.1" id="Livello_1" xmlns:x="&ns_extend;" xmlns:i="&ns_ai;" xmlns:graph="&ns_graphs;"
	 xmlns="http://www.w3.org/2000/svg" xmlns:xlink="http://www.w3.org/1999/xlink" x="0px" y="0px" viewBox="0 0 60 60"
	 enable-background="new 0 0 60 60" xml:space="preserve">
<metadata>
	<sfw  xmlns="&ns_sfw;">
		<slices></slices>
		<sliceSourceBounds  width="58.2" height="57.9" x="0.8" y="1.2" bottomLeftOrigin="true"></sliceSourceBounds>
	</sfw>
</metadata>
<g>
	<path fill="#FFFFFF" d="M56.4,14.1H44c1.7,1.5,3.2,3.3,4.3,5.3h8.1c1.5,0,2.6-1.2,2.6-2.6C59,15.3,57.8,14.1,56.4,14.1L56.4,14.1z
		 M56.4,14.1"/>
	<path fill="#FFFFFF" d="M56.4,20.7H49c0.8,1.6,1.4,3.4,1.7,5.3h5.7c1.5,0,2.6-1.2,2.6-2.6C59,21.9,57.8,20.7,56.4,20.7L56.4,20.7z
		 M56.4,20.7"/>
	<path fill="#FFFFFF" d="M56.4,7.5H36.8c-1.1,0-2.1,0.7-2.5,1.7c2.9,0.6,5.6,1.9,8,3.5h14.1c1.5,0,2.6-1.2,2.6-2.6
		C59,8.7,57.8,7.5,56.4,7.5L56.4,7.5z M56.4,7.5"/>
	<path fill="#FFFFFF" d="M36.8,6.1h19.6c1.5,0,2.6-1.2,2.6-2.6c0-1.4-1.2-2.6-2.6-2.6H36.8c-1.5,0-2.6,1.2-2.6,2.6
		C34.1,4.9,35.3,6.1,36.8,6.1L36.8,6.1z M36.8,6.1"/>
	<path fill="#FFFFFF" d="M56.4,27.4h-5.4c0.1,0.8,0.2,1.6,0.2,2.4c0,1-0.1,1.9-0.2,2.9h5.5c1.5,0,2.6-1.2,2.6-2.6
		C59,28.6,57.8,27.4,56.4,27.4L56.4,27.4z M56.4,27.4"/>
	<path fill="#FFFFFF" d="M56.4,34h-5.7c-0.4,1.9-1,3.6-1.9,5.3h7.6c1.5,0,2.6-1.2,2.6-2.6C59,35.2,57.8,34,56.4,34L56.4,34z
		 M56.4,34"/>
	<path fill="#FFFFFF" d="M56.4,40.7H48c-1.2,2-2.7,3.8-4.5,5.3h12.9c1.5,0,2.6-1.2,2.6-2.6C59,41.8,57.8,40.7,56.4,40.7L56.4,40.7z
		 M56.4,40.7"/>
	<path fill="#FFFFFF" d="M3.5,32.2h5.4c-0.1-0.8-0.1-1.6-0.1-2.4c0-1,0.1-1.9,0.2-2.9H3.5c-1.5,0-2.6,1.2-2.6,2.6
		C0.8,31,2,32.2,3.5,32.2L3.5,32.2z M3.5,32.2"/>
	<path fill="#FFFFFF" d="M3.5,38.9h7.4c-0.8-1.7-1.4-3.4-1.7-5.3H3.5c-1.5,0-2.6,1.2-2.6,2.6C0.8,37.7,2,38.9,3.5,38.9L3.5,38.9z
		 M3.5,38.9"/>
	<path fill="#FFFFFF" d="M3.5,25.6h5.7c0.4-1.9,1-3.6,1.9-5.3H3.5c-1.5,0-2.6,1.2-2.6,2.6C0.8,24.4,2,25.6,3.5,25.6L3.5,25.6z
		 M3.5,25.6"/>
	<path fill="#FFFFFF" d="M3.5,18.9h8.4c1.2-2,2.7-3.8,4.5-5.3H3.5c-1.5,0-2.6,1.2-2.6,2.6C0.8,17.8,2,18.9,3.5,18.9L3.5,18.9z
		 M3.5,18.9"/>
	<path fill="#FFFFFF" d="M3.5,45.5h12.4c-1.7-1.5-3.1-3.3-4.3-5.3H3.5c-1.5,0-2.6,1.2-2.6,2.6C0.8,44.3,2,45.5,3.5,45.5L3.5,45.5z
		 M3.5,45.5"/>
	<path fill="#FFFFFF" d="M3.5,52.1h19.6c1.1,0,2.1-0.7,2.5-1.7c-2.9-0.6-5.6-1.9-8-3.5H3.5c-1.5,0-2.6,1.2-2.6,2.6
		C0.8,50.9,2,52.1,3.5,52.1L3.5,52.1z M3.5,52.1"/>
	<path fill="#FFFFFF" d="M23.1,53.5H3.5c-1.5,0-2.6,1.2-2.6,2.6c0,1.5,1.2,2.6,2.6,2.6h19.6c1.5,0,2.6-1.2,2.6-2.6
		C25.7,54.7,24.5,53.5,23.1,53.5L23.1,53.5z M23.1,53.5"/>
	<path fill="#FFFFFF" d="M29.9,11.4c-10.2,0-18.5,8.3-18.5,18.4c0,10.2,8.3,18.4,18.5,18.4c10.2,0,18.5-8.3,18.5-18.4
		C48.4,19.6,40.1,11.4,29.9,11.4L29.9,11.4z M29.9,43c-7.3,0-13.2-5.9-13.2-13.2c0-7.3,5.9-13.2,13.2-13.2s13.2,5.9,13.2,13.2
		C43.1,37.1,37.2,43,29.9,43L29.9,43z M29.9,43"/>
	<path fill="#FFFFFF" d="M30.7,28v-4.6c2.7,0,2.6,2.6,4.2,2.6c0.8,0,1.5-0.5,1.5-1.5c0-2.3-3.8-3.5-5.7-3.6v-1.3
		c0-0.4-0.3-0.8-0.7-0.8c-0.4,0-0.7,0.4-0.7,0.8V21c-3,0.1-5.7,1.8-5.7,5c0,2.7,2.2,4.2,5.7,4.9v5c-4-0.2-1.9-3.5-4.6-3.5
		c-0.9,0-1.5,0.6-1.5,1.5c0,1.9,2,4.3,6.1,4.4v1.5c0,0.4,0.3,0.8,0.7,0.8c0.4,0,0.7-0.4,0.7-0.8v-1.5c3.6-0.2,6-1.8,6-5.1
		C36.7,29.6,33.9,28.7,30.7,28L30.7,28z M29.2,27.8c-1.8-0.4-2.7-1.1-2.7-2.3c0-1,1.1-2,2.7-2V27.8z M30.7,35.9v-4.7
		c1.3,0.3,3,0.8,3,2.4C33.6,35.2,32.1,35.8,30.7,35.9L30.7,35.9z M30.7,35.9"/>
</g>
</svg>
