<?xml version="1.0" encoding="utf-8"?>
<!-- Generator: Adobe Illustrator 18.0.0, SVG Export Plug-In . SVG Version: 6.00 Build 0)  -->
<!DOCTYPE svg PUBLIC "-//W3C//DTD SVG 1.1//EN" "http://www.w3.org/Graphics/SVG/1.1/DTD/svg11.dtd" [
	<!ENTITY ns_extend "http://ns.adobe.com/Extensibility/1.0/">
	<!ENTITY ns_ai "http://ns.adobe.com/AdobeIllustrator/10.0/">
	<!ENTITY ns_graphs "http://ns.adobe.com/Graphs/1.0/">
	<!ENTITY ns_vars "http://ns.adobe.com/Variables/1.0/">
	<!ENTITY ns_imrep "http://ns.adobe.com/ImageReplacement/1.0/">
	<!ENTITY ns_sfw "http://ns.adobe.com/SaveForWeb/1.0/">
	<!ENTITY ns_custom "http://ns.adobe.com/GenericCustomNamespace/1.0/">
	<!ENTITY ns_adobe_xpath "http://ns.adobe.com/XPath/1.0/">
]>
<svg version="1.1" id="Livello_1" xmlns:x="&ns_extend;" xmlns:i="&ns_ai;" xmlns:graph="&ns_graphs;"
	 xmlns="http://www.w3.org/2000/svg" xmlns:xlink="http://www.w3.org/1999/xlink" x="0px" y="0px" viewBox="0 0 60 60"
	 enable-background="new 0 0 60 60" xml:space="preserve">
<metadata>
	<sfw  xmlns="&ns_sfw;">
		<slices></slices>
		<sliceSourceBounds  width="59.2" height="43.5" x="0.4" y="7.9" bottomLeftOrigin="true"></sliceSourceBounds>
	</sfw>
</metadata>
<g>
	<path fill="#FFFFFF" d="M40.1,42.6L39.5,42c-2.9,1.7-6.2,2.7-9.6,2.7c-4.3,0-8.3-1.4-11.7-4.1c-0.9,0.6-1.8,1.3-2.7,2.1
		c-0.7,0.6-1.1,1.5-1.1,2.4v4.5h31.1v-1.5L41,43.4L40.1,42.6z M40.1,42.6"/>
	<path fill="#FFFFFF" d="M30.7,15.3h-1.4c-3.2,0-5.8,2.6-5.8,5.9v6.5c0,1,0.5,1.9,1.3,2.5v5.6c1.6,0.8,3.3,1.3,5.1,1.3
		c1.8,0,3.6-0.4,5.2-1.3v-5.5c0.8-0.5,1.3-1.4,1.3-2.5v-6.5C36.4,17.9,33.8,15.3,30.7,15.3L30.7,15.3z M30.7,15.3"/>
	<path fill="#FFFFFF" d="M58.6,38.2c-3.3-2.8-6.9-4.6-7.6-5c-0.1,0-0.1-0.1-0.1-0.2v-5.3c0.7-0.4,1.1-1.2,1.1-2.1v-5.5
		c0-2.7-2.2-4.9-4.8-4.9H46c1.7,2.8,2.7,6,2.8,9.4c0.1,3.7-0.8,7.4-2.6,10.6l8.6,8.8h4.8v-3.8C59.6,39.5,59.2,38.7,58.6,38.2
		L58.6,38.2z M58.6,38.2"/>
	<path fill="#FFFFFF" d="M55.4,48.1l-9.5-9.7l-0.8-0.8l-0.3-0.3L44.5,37l-0.6,0.7l-1.4-1.4c5.5-6.6,5.2-16.5-0.9-22.8
		c-3.2-3.3-7.4-4.9-11.6-4.9c-4.2,0-8.4,1.6-11.6,4.9c-6.4,6.6-6.4,17.2,0,23.8c3.2,3.3,7.4,4.9,11.6,4.9c3.8,0,7.6-1.3,10.6-4
		l1.4,1.4l-0.6,0.7l0.5,0.5l0.8,0.8l9.5,9.7c0.4,0.5,1,0.7,1.6,0.7c0.6,0,1.2-0.2,1.6-0.7C56.3,50.5,56.3,49,55.4,48.1
		C55.4,48.1,55.4,48.1,55.4,48.1L55.4,48.1z M39.6,35.3c-2.7,2.7-6.2,4.1-9.7,4.1c-3.5,0-7-1.4-9.7-4.1c-5.4-5.5-5.4-14.3,0-19.8
		c2.7-2.7,6.2-4.1,9.7-4.1c3.5,0,7,1.4,9.7,4.1C45,21,45,29.8,39.6,35.3L39.6,35.3z M39.6,35.3"/>
	<path fill="#FFFFFF" d="M13.9,15.3h-1.1c-2.7,0-4.8,2.2-4.8,4.9v5.5c0,0.9,0.4,1.6,1.1,2.1V33c0,0.1,0,0.2-0.1,0.2
		c-0.7,0.4-4.3,2.2-7.6,5c-0.6,0.5-0.9,1.3-0.9,2.1V44h11.8c0.2-1.3,0.9-2.4,1.9-3.3c0.8-0.7,1.6-1.3,2.4-1.9
		C10.3,32.4,9.4,22.6,13.9,15.3L13.9,15.3z M13.9,15.3"/>
</g>
</svg>
