<?xml version="1.0" encoding="utf-8"?>
<!-- Generator: Adobe Illustrator 18.0.0, SVG Export Plug-In . SVG Version: 6.00 Build 0)  -->
<!DOCTYPE svg PUBLIC "-//W3C//DTD SVG 1.1//EN" "http://www.w3.org/Graphics/SVG/1.1/DTD/svg11.dtd" [
	<!ENTITY ns_extend "http://ns.adobe.com/Extensibility/1.0/">
	<!ENTITY ns_ai "http://ns.adobe.com/AdobeIllustrator/10.0/">
	<!ENTITY ns_graphs "http://ns.adobe.com/Graphs/1.0/">
	<!ENTITY ns_vars "http://ns.adobe.com/Variables/1.0/">
	<!ENTITY ns_imrep "http://ns.adobe.com/ImageReplacement/1.0/">
	<!ENTITY ns_sfw "http://ns.adobe.com/SaveForWeb/1.0/">
	<!ENTITY ns_custom "http://ns.adobe.com/GenericCustomNamespace/1.0/">
	<!ENTITY ns_adobe_xpath "http://ns.adobe.com/XPath/1.0/">
]>
<svg version="1.1" id="Livello_1" xmlns:x="&ns_extend;" xmlns:i="&ns_ai;" xmlns:graph="&ns_graphs;"
	 xmlns="http://www.w3.org/2000/svg" xmlns:xlink="http://www.w3.org/1999/xlink" x="0px" y="0px" viewBox="0 0 60 60"
	 enable-background="new 0 0 60 60" xml:space="preserve">
<metadata>
	<sfw  xmlns="&ns_sfw;">
		<slices></slices>
		<sliceSourceBounds  width="48.1" height="59.6" x="6.1" y="0.2" bottomLeftOrigin="true"></sliceSourceBounds>
	</sfw>
</metadata>
<g>
	<path fill="#FFFFFF" d="M25.5,4.6h20.1c0.9,0,1.6-0.7,1.6-1.5l0,0c0-0.8-0.7-1.5-1.6-1.5H25.5c-0.9,0-1.6,0.7-1.6,1.5l0,0
		C23.9,3.9,24.7,4.6,25.5,4.6L25.5,4.6z"/>
	<path fill="#FFFFFF" d="M23.9,8.9c0,0.8,0.7,1.5,1.6,1.5h27.1c0.9,0,1.6-0.7,1.6-1.5l0,0c0-0.8-0.7-1.5-1.6-1.5H25.5
		C24.7,7.4,23.9,8,23.9,8.9L23.9,8.9z"/>
	<path fill="#FFFFFF" d="M23.9,14.8c0,0.8,0.7,1.5,1.6,1.5h27.1c0.9,0,1.6-0.7,1.6-1.5l0,0c0-0.8-0.7-1.5-1.6-1.5H25.5
		C24.7,13.2,23.9,13.9,23.9,14.8L23.9,14.8z"/>
	<path fill="#FFFFFF" d="M23.9,23.6c0,0.8,0.7,1.5,1.6,1.5h20c0.9,0,1.6-0.7,1.6-1.5l0,0c0-0.8-0.7-1.5-1.6-1.5H25.5
		C24.7,22.1,23.9,22.7,23.9,23.6L23.9,23.6z"/>
	<path fill="#FFFFFF" d="M23.9,29.5c0,0.8,0.7,1.5,1.6,1.5h14.5c0.9,0,1.6-0.7,1.6-1.5l0,0c0-0.8-0.7-1.5-1.6-1.5H25.6
		C24.7,27.9,23.9,28.6,23.9,29.5L23.9,29.5z"/>
	<path fill="#FFFFFF" d="M23.9,35.4c0,0.8,0.7,1.5,1.6,1.5h27.1c0.9,0,1.6-0.7,1.6-1.5l0,0c0-0.8-0.7-1.5-1.6-1.5H25.5
		C24.7,33.8,23.9,34.5,23.9,35.4L23.9,35.4z"/>
	<path fill="#FFFFFF" d="M23.9,45.4c0,0.8,0.7,1.5,1.5,1.5h26.2c0.8,0,1.5-0.7,1.5-1.5l0,0c0-0.8-0.7-1.5-1.5-1.5H25.5
		C24.6,43.9,23.9,44.6,23.9,45.4L23.9,45.4z"/>
	<path fill="#FFFFFF" d="M23.9,51.1c0,0.8,0.7,1.5,1.5,1.5h22.7c0.8,0,1.5-0.7,1.5-1.5l0,0c0-0.8-0.7-1.5-1.5-1.5H25.5
		C24.6,49.6,23.9,50.3,23.9,51.1L23.9,51.1z"/>
	<path fill="#FFFFFF" d="M23.9,56.8c0,0.8,0.7,1.5,1.5,1.5h10.4c0.8,0,1.5-0.7,1.5-1.5l0,0c0-0.8-0.7-1.5-1.5-1.5H25.5
		C24.6,55.3,23.9,56,23.9,56.8L23.9,56.8z"/>
	<path fill="#FFFFFF" d="M6.1,9.8v7.8h12.9V9.8c0-0.7-0.6-1.2-1.4-1.2h-1.4c-0.3,0-0.5,0.1-0.6,0.3l-2.2,2.7l-0.5-1L13.7,9
		c0.1-0.2-0.1-0.5-0.4-0.5h-1.6c-0.3,0-0.5,0.3-0.4,0.5l0.8,1.6l-0.5,1l-2-2.7C9.5,8.7,9.3,8.6,9,8.6H7.5C6.8,8.6,6.1,9.2,6.1,9.8
		L6.1,9.8z"/>
	<path fill="#FFFFFF" d="M12.6,7.8c2.2,0,4-1.7,4-3.8s-1.8-3.8-4-3.8s-4,1.7-4,3.8C8.7,6,10.5,7.8,12.6,7.8L12.6,7.8z"/>
	<path fill="#FFFFFF" d="M6.1,38.2h12.9v-7.8c0-0.7-0.6-1.2-1.4-1.2h-1.4c-0.3,0-0.5,0.1-0.6,0.3l-2.2,2.7l-0.5-1l0.8-1.6
		c0.1-0.2-0.1-0.5-0.4-0.5h-1.6c-0.3,0-0.5,0.3-0.4,0.5l0.8,1.6l-0.5,1l-2.1-2.7c-0.2-0.2-0.4-0.3-0.6-0.3H7.5
		c-0.7,0-1.4,0.5-1.4,1.2V38.2z"/>
	<path fill="#FFFFFF" d="M8.7,24.5c0,2.1,1.8,3.8,4,3.8s4-1.7,4-3.8s-1.8-3.8-4-3.8S8.7,22.4,8.7,24.5L8.7,24.5z"/>
	<path fill="#FFFFFF" d="M19.1,52c0-0.7-0.6-1.2-1.4-1.2h-1.4c-0.3,0-0.5,0.1-0.6,0.3l-2.2,2.7l-0.5-1l0.8-1.6
		c0.1-0.2-0.1-0.5-0.4-0.5h-1.6c-0.3,0-0.5,0.3-0.4,0.5l0.8,1.6l-0.5,1l-2.1-2.7c-0.2-0.2-0.4-0.3-0.6-0.3H7.5
		c-0.7,0-1.4,0.5-1.4,1.2v7.8h12.9V52z"/>
	<path fill="#FFFFFF" d="M8.7,46.1c0,2.1,1.8,3.8,4,3.8s4-1.7,4-3.8s-1.8-3.8-4-3.8S8.7,44,8.7,46.1L8.7,46.1z"/>
</g>
</svg>
