<?xml version="1.0" encoding="UTF-8" standalone="no"?>
<!-- Generator: Adobe Illustrator 18.0.0, SVG Export Plug-In . SVG Version: 6.00 Build 0)  -->

<svg
   xmlns:ns="&amp;ns_sfw;"
   xmlns:dc="http://purl.org/dc/elements/1.1/"
   xmlns:cc="http://creativecommons.org/ns#"
   xmlns:rdf="http://www.w3.org/1999/02/22-rdf-syntax-ns#"
   xmlns:svg="http://www.w3.org/2000/svg"
   xmlns="http://www.w3.org/2000/svg"
   xmlns:xlink="http://www.w3.org/1999/xlink"
   xmlns:sodipodi="http://sodipodi.sourceforge.net/DTD/sodipodi-0.dtd"
   xmlns:inkscape="http://www.inkscape.org/namespaces/inkscape"
   version="1.1"
   id="Livello_1"
   x="0px"
   y="0px"
   viewBox="0 0 60 60"
   enable-background="new 0 0 60 60"
   xml:space="preserve"
   inkscape:version="0.91 r13725"
   sodipodi:docname="company.svg"><defs
     id="defs42" /><sodipodi:namedview
     pagecolor="#ffffff"
     bordercolor="#666666"
     borderopacity="1"
     objecttolerance="10"
     gridtolerance="10"
     guidetolerance="10"
     inkscape:pageopacity="0"
     inkscape:pageshadow="2"
     inkscape:window-width="755"
     inkscape:window-height="480"
     id="namedview40"
     showgrid="false"
     inkscape:zoom="3.9333333"
     inkscape:cx="30"
     inkscape:cy="30"
     inkscape:window-x="0"
     inkscape:window-y="0"
     inkscape:window-maximized="0"
     inkscape:current-layer="Livello_1" /><metadata
     id="metadata3"><ns:sfw><ns:slices /><ns:sliceSourceBounds
         width="60"
         height="52.2"
         x="0"
         y="4.1"
         bottomLeftOrigin="true" /></ns:sfw><rdf:RDF><cc:Work
         rdf:about=""><dc:format>image/svg+xml</dc:format><dc:type
           rdf:resource="http://purl.org/dc/dcmitype/StillImage" /></cc:Work></rdf:RDF></metadata><g
     id="g7"><g
       id="g9" /><g
       id="g12"><defs
         id="defs14"><rect
           x="0"
           height="52.200001"
           width="60"
           y="3.7"
           id="SVGID_2_" /></defs><clipPath
         id="SVGID_3_"><use
           height="100%"
           width="100%"
           y="0"
           x="0"
           style="overflow:visible"
           id="use18"
           overflow="visible"
           xlink:href="#SVGID_2_" /></clipPath></g><g
       id="g22"><defs
         id="defs24"><rect
           x="0"
           height="52.200001"
           width="60"
           y="3.7"
           id="SVGID_4_" /></defs><clipPath
         id="SVGID_5_"><use
           height="100%"
           width="100%"
           y="0"
           x="0"
           style="overflow:visible"
           id="use28"
           overflow="visible"
           xlink:href="#SVGID_4_" /></clipPath></g></g><g
     id="g34"><path
       id="path38"
       style="fill:#ffffff"
       d="M 58,4 51.6,9.6 C 51.2,10 51,10.5 51,11 l 0,43.2 c 0,1 0.7,1.7 1.6,1.7 l 5.8,0 c 0.9,0 1.6,-0.8 1.6,-1.7 L 60,4.9 C 60,3.9 58.8,3.3 58,4 l 0,0 z M 44.1,16.1 37.7,21.7 C 37.3,22 37.1,22.5 37.1,23 l 0,31 c 0,1 0.7,1.7 1.6,1.7 l 5.8,0 c 0.9,0 1.6,-0.8 1.6,-1.7 l 0,-36.9 c 0,-1.1 -1.2,-1.7 -2,-1 l 0,0 z m -13.9,12.2 -6.4,5.6 c -0.4,0.3 -0.6,0.8 -0.6,1.3 l 0,18.8 c 0,1 0.7,1.7 1.6,1.7 l 5.8,0 c 0.9,0 1.6,-0.8 1.6,-1.7 l 0,-24.8 c -0.1,-1 -1.2,-1.6 -2,-0.9 l 0,0 z m -14.7,0.5 -2.9,0 c -0.4,0 -0.8,0.3 -1,0.7 l -1.5,3.4 -0.5,-1 -0.3,-0.7 0.8,-1.9 c 0.1,-0.2 0,-0.4 -0.1,-0.5 -0.1,0 -0.1,-0.1 -0.2,-0.1 l -1.6,0 c -0.1,0 -0.1,0 -0.2,0.1 -0.1,0.1 -0.2,0.3 -0.1,0.5 l 0.8,1.9 -0.3,0.7 -0.5,1 -1.5,-3.4 C 6.2,29.1 5.8,28.8 5.4,28.8 l -2.7,0 C 1,28.8 0,30 0,32.1 l 0,8.6 c 0,0.9 0.8,1.4 1.6,1.4 0.8,0 1.5,-0.4 1.5,-1.3 l 0,-6.5 1.2,0 0,19.1 c 0,1.3 1,2 2.1,2 1,0 2.1,-0.7 2.1,-2 l 0,-9.2 1.1,0 0,9.2 c 0,1.4 1,2 2.1,2 1,0 2.1,-0.7 2.1,-2 l 0,-19.1 1.2,0 0,6.5 c 0,0.9 0.8,1.3 1.5,1.3 0.8,0 1.6,-0.5 1.6,-1.4 l 0,-8.6 C 18.2,30 17.2,28.8 15.5,28.8 l 0,0 z m -2.6,-6 c 0,2.3 -1.7,4.1 -3.8,4.1 -2.1,0 -3.8,-1.9 -3.8,-4.1 0,-2.2 1.7,-4.1 3.8,-4.1 2.1,0 3.8,1.8 3.8,4.1 l 0,0 z M 0,3.7 l 60,0 0,52.200001 -60,0 z" /></g></svg>