<?xml version="1.0" encoding="utf-8"?>
<!-- Generator: Adobe Illustrator 18.0.0, SVG Export Plug-In . SVG Version: 6.00 Build 0)  -->
<!DOCTYPE svg PUBLIC "-//W3C//DTD SVG 1.1//EN" "http://www.w3.org/Graphics/SVG/1.1/DTD/svg11.dtd" [
	<!ENTITY ns_extend "http://ns.adobe.com/Extensibility/1.0/">
	<!ENTITY ns_ai "http://ns.adobe.com/AdobeIllustrator/10.0/">
	<!ENTITY ns_graphs "http://ns.adobe.com/Graphs/1.0/">
	<!ENTITY ns_vars "http://ns.adobe.com/Variables/1.0/">
	<!ENTITY ns_imrep "http://ns.adobe.com/ImageReplacement/1.0/">
	<!ENTITY ns_sfw "http://ns.adobe.com/SaveForWeb/1.0/">
	<!ENTITY ns_custom "http://ns.adobe.com/GenericCustomNamespace/1.0/">
	<!ENTITY ns_adobe_xpath "http://ns.adobe.com/XPath/1.0/">
]>
<svg version="1.1" id="Livello_1" xmlns:x="&ns_extend;" xmlns:i="&ns_ai;" xmlns:graph="&ns_graphs;"
	 xmlns="http://www.w3.org/2000/svg" xmlns:xlink="http://www.w3.org/1999/xlink" x="0px" y="0px" viewBox="0 0 60 60"
	 enable-background="new 0 0 60 60" xml:space="preserve">
<metadata>
	<sfw  xmlns="&ns_sfw;">
		<slices></slices>
		<sliceSourceBounds  width="59.5" height="59.5" x="0.3" y="0.2" bottomLeftOrigin="true"></sliceSourceBounds>
	</sfw>
</metadata>
<g>
	<path fill="#FFFFFF" d="M59.8,22.9c0-4.8-2.8-8.8-6.6-10.2c1.8-1.2,3-3.3,3-5.8c0-3.7-2.6-6.7-5.9-6.7c-3.3,0-5.9,3-5.9,6.7
		c0,2.5,1.2,4.6,3,5.8c-3.8,1.4-6.6,5.4-6.6,10.2v1h5.7L33.4,37.2c-0.9-0.7-2.1-1.1-3.3-1.1c-1.2,0-2.4,0.4-3.3,1.2L13.6,23.9h5.8
		v-1c0-4.8-2.8-8.8-6.6-10.2c1.8-1.2,3-3.3,3-5.8c0-3.7-2.6-6.7-5.9-6.7c-3.3,0-5.9,3-5.9,6.7c0,2.5,1.2,4.6,3,5.8
		c-3.8,1.4-6.6,5.4-6.6,10.2v1h11.1l-0.3,0.3l14.3,14.5c-0.8,1.1-1.2,2.5-1.2,4.1c0,2.5,1.2,4.6,3,5.8c-3.8,1.4-6.6,5.4-6.6,10.2v1
		h19v-1c0-4.8-2.8-8.8-6.6-10.2c1.8-1.2,3-3.3,3-5.8c0-1.5-0.5-3-1.3-4.1L49,24.3l-0.3-0.3h11.1V22.9z M5.8,6.9c0-2.5,1.8-4.6,4-4.6
		c2.2,0,4,2.1,4,4.6c0,2.5-1.8,4.6-4,4.6C7.6,11.5,5.8,9.5,5.8,6.9L5.8,6.9z M2.2,21.9c0.5-4.3,3.7-7.6,7.6-7.6
		c3.9,0,7.2,3.3,7.6,7.6H2.2z M37.7,57.7H22.5c0.5-4.3,3.7-7.6,7.6-7.6C34,50.1,37.2,53.4,37.7,57.7L37.7,57.7z M30.1,47.4
		c-2.2,0-4-2.1-4-4.6c0-2.5,1.8-4.6,4-4.6c2.2,0,4,2.1,4,4.6C34.1,45.3,32.3,47.4,30.1,47.4L30.1,47.4z M46.3,6.9
		c0-2.5,1.8-4.6,4-4.6s4,2.1,4,4.6c0,2.5-1.8,4.6-4,4.6S46.3,9.5,46.3,6.9L46.3,6.9z M42.7,21.9c0.5-4.3,3.7-7.6,7.6-7.6
		c3.9,0,7.2,3.3,7.6,7.6H42.7z M42.7,21.9"/>
</g>
</svg>
