<?xml version="1.0" encoding="utf-8"?>
<!-- Generator: Adobe Illustrator 18.0.0, SVG Export Plug-In . SVG Version: 6.00 Build 0)  -->
<!DOCTYPE svg PUBLIC "-//W3C//DTD SVG 1.1//EN" "http://www.w3.org/Graphics/SVG/1.1/DTD/svg11.dtd" [
	<!ENTITY ns_extend "http://ns.adobe.com/Extensibility/1.0/">
	<!ENTITY ns_ai "http://ns.adobe.com/AdobeIllustrator/10.0/">
	<!ENTITY ns_graphs "http://ns.adobe.com/Graphs/1.0/">
	<!ENTITY ns_vars "http://ns.adobe.com/Variables/1.0/">
	<!ENTITY ns_imrep "http://ns.adobe.com/ImageReplacement/1.0/">
	<!ENTITY ns_sfw "http://ns.adobe.com/SaveForWeb/1.0/">
	<!ENTITY ns_custom "http://ns.adobe.com/GenericCustomNamespace/1.0/">
	<!ENTITY ns_adobe_xpath "http://ns.adobe.com/XPath/1.0/">
]>
<svg version="1.1" id="Livello_1" xmlns:x="&ns_extend;" xmlns:i="&ns_ai;" xmlns:graph="&ns_graphs;"
	 xmlns="http://www.w3.org/2000/svg" xmlns:xlink="http://www.w3.org/1999/xlink" x="0px" y="0px" viewBox="0 0 60 60"
	 enable-background="new 0 0 60 60" xml:space="preserve">
<metadata>
	<sfw  xmlns="&ns_sfw;">
		<slices></slices>
		<sliceSourceBounds  width="58.8" height="58.8" x="0.8" y="0.6" bottomLeftOrigin="true"></sliceSourceBounds>
	</sfw>
</metadata>
<g>
	<path fill="#FFFFFF" d="M55.9,39c0.4-1.9,0.7-3.9,0.7-5.9c0-9.2-4.7-17.6-12.6-22.4c-0.5-0.3-1.1-0.1-1.4,0.3
		c-0.3,0.5-0.1,1.1,0.3,1.4c7.3,4.5,11.6,12.2,11.6,20.7c0,1.7-0.2,3.5-0.6,5.2c-0.5-0.1-1-0.1-1.4-0.1c-3.9,0-7.1,3.2-7.1,7.1
		c0,3.9,3.2,7.1,7.1,7.1c3.9,0,7.1-3.2,7.1-7.1C59.6,42.5,58.1,40.2,55.9,39L55.9,39z M52.5,50.3c-2.8,0-5.1-2.3-5.1-5.1
		c0-2.8,2.3-5.1,5.1-5.1c2.8,0,5.1,2.3,5.1,5.1C57.6,48,55.3,50.3,52.5,50.3L52.5,50.3z M52.5,50.3"/>
	<path fill="#FFFFFF" d="M39.5,55.5c-3,1.2-6.1,1.8-9.3,1.8c-6.5,0-12.7-2.6-17.3-7.2c1.3-1.3,2-3,2-5c0-3.9-3.2-7.1-7.1-7.1
		c-3.9,0-7.1,3.2-7.1,7.1c0,3.9,3.2,7.1,7.1,7.1c1.2,0,2.4-0.3,3.4-0.9c4.9,5.1,11.8,8,18.9,8c3.5,0,6.9-0.7,10.1-2
		c0.5-0.2,0.8-0.8,0.6-1.3C40.6,55.5,40,55.3,39.5,55.5L39.5,55.5z M2.8,45.2c0-2.8,2.3-5.1,5.1-5.1c2.8,0,5.1,2.3,5.1,5.1
		c0,2.8-2.3,5.1-5.1,5.1C5.1,50.3,2.8,48,2.8,45.2L2.8,45.2z M2.8,45.2"/>
	<path fill="#FFFFFF" d="M4.9,32.2C4.9,32.2,4.9,32.2,4.9,32.2c0.6,0,1-0.4,1.1-0.9c0.7-10.2,7.7-18.8,17.5-21.6
		c0.9,2.9,3.6,5.1,6.8,5.1c3.9,0,7.1-3.2,7.1-7.1c0-3.9-3.2-7.1-7.1-7.1c-3.9,0-7.1,3.2-7.1,7.1C12.4,10.7,4.7,20,3.9,31.2
		C3.9,31.7,4.3,32.2,4.9,32.2L4.9,32.2z M30.2,2.7c2.8,0,5.1,2.3,5.1,5.1c0,2.8-2.3,5.1-5.1,5.1c-2.8,0-5.1-2.3-5.1-5.1
		C25.1,4.9,27.4,2.7,30.2,2.7L30.2,2.7z M30.2,2.7"/>
</g>
</svg>
