<?xml version="1.0" encoding="UTF-8" standalone="no"?>
<svg
   xmlns:ns="&amp;ns_sfw;"
   xmlns:dc="http://purl.org/dc/elements/1.1/"
   xmlns:cc="http://creativecommons.org/ns#"
   xmlns:rdf="http://www.w3.org/1999/02/22-rdf-syntax-ns#"
   xmlns:svg="http://www.w3.org/2000/svg"
   xmlns="http://www.w3.org/2000/svg"
   xmlns:sodipodi="http://sodipodi.sourceforge.net/DTD/sodipodi-0.dtd"
   xmlns:inkscape="http://www.inkscape.org/namespaces/inkscape"
   version="1.1"
   id="Livello_1"
   x="0px"
   y="0px"
   viewBox="0 0 17 17"
   enable-background="new 0 0 17 17"
   xml:space="preserve"
   inkscape:version="0.91 r13725"
   sodipodi:docname="crea.svg"><defs
     id="defs9" /><sodipodi:namedview
     pagecolor="#ffffff"
     bordercolor="#666666"
     borderopacity="1"
     objecttolerance="10"
     gridtolerance="10"
     guidetolerance="10"
     inkscape:pageopacity="0"
     inkscape:pageshadow="2"
     inkscape:window-width="755"
     inkscape:window-height="480"
     id="namedview7"
     showgrid="false"
     inkscape:zoom="13.882353"
     inkscape:cx="8.5"
     inkscape:cy="8.5"
     inkscape:window-x="0"
     inkscape:window-y="0"
     inkscape:window-maximized="0"
     inkscape:current-layer="Livello_1" /><metadata
     id="metadata3"><ns:sfw><ns:slices /><ns:sliceSourceBounds
         width="16.9"
         height="17"
         x="21"
         y="22"
         bottomLeftOrigin="true" /></ns:sfw><rdf:RDF><cc:Work
         rdf:about=""><dc:format>image/svg+xml</dc:format><dc:type
           rdf:resource="http://purl.org/dc/dcmitype/StillImage" /><dc:title></dc:title></cc:Work></rdf:RDF></metadata><path
     d="M 14.011719 -0.05078125 C 13.624219 -0.05078125 13.25 0.10039063 13 0.40039062 L 5.4003906 8 L 3.6992188 13.300781 L 9 11.5 L 16.5 4 C 16.8 3.7 16.900391 3.3003906 16.900391 2.9003906 C 16.900391 2.5003906 16.8 2.1007812 16.5 1.8007812 L 15.099609 0.40039062 C 14.799609 0.10039063 14.399219 -0.05078125 14.011719 -0.05078125 z M 14.050781 1.0507812 C 14.175781 1.0507812 14.300391 1.0992188 14.400391 1.1992188 L 15.800781 2.5996094 C 15.900781 2.6996094 15.900391 2.8 15.900391 3 C 15.900391 3.2 15.900781 3.2007812 15.800781 3.3007812 L 15.099609 4 L 13 1.9003906 L 13.699219 1.1992188 C 13.799219 1.0992187 13.925781 1.0507812 14.050781 1.0507812 z M 0 2 L 0 17 L 16 17 L 16 7.5 L 15 7.5 L 15 16 L 1 16 L 1 3 L 7.5 3 L 7.5 2 L 0 2 z M 12.199219 2.5996094 L 14.300781 4.6992188 L 13.599609 5.4003906 L 11.5 3.3007812 L 12.199219 2.5996094 z M 10.800781 4 L 12.900391 6.0996094 L 8.9003906 10.099609 L 6.8007812 8 L 10.800781 4 z M 6.1992188 8.8007812 L 8.0996094 10.699219 L 6.1992188 11.400391 L 5.5996094 10.800781 L 6.1992188 8.8007812 z "
     id="path5" /></svg>