<?xml version="1.0" encoding="UTF-8" standalone="no"?>
<!-- Generator: Adobe Illustrator 18.0.0, SVG Export Plug-In . SVG Version: 6.00 Build 0)  -->

<svg
   xmlns:ns="&amp;ns_sfw;"
   xmlns:dc="http://purl.org/dc/elements/1.1/"
   xmlns:cc="http://creativecommons.org/ns#"
   xmlns:rdf="http://www.w3.org/1999/02/22-rdf-syntax-ns#"
   xmlns:svg="http://www.w3.org/2000/svg"
   xmlns="http://www.w3.org/2000/svg"
   xmlns:sodipodi="http://sodipodi.sourceforge.net/DTD/sodipodi-0.dtd"
   xmlns:inkscape="http://www.inkscape.org/namespaces/inkscape"
   version="1.1"
   id="Livello_1"
   x="0px"
   y="0px"
   viewBox="0 0 60 60"
   enable-background="new 0 0 60 60"
   xml:space="preserve"
   inkscape:version="0.91 r13725"
   sodipodi:docname="curriculum--2.svg"><defs
     id="defs35" /><sodipodi:namedview
     pagecolor="#ffffff"
     bordercolor="#666666"
     borderopacity="1"
     objecttolerance="10"
     gridtolerance="10"
     guidetolerance="10"
     inkscape:pageopacity="0"
     inkscape:pageshadow="2"
     inkscape:window-width="755"
     inkscape:window-height="480"
     id="namedview33"
     showgrid="false"
     inkscape:zoom="3.9333333"
     inkscape:cx="30"
     inkscape:cy="30"
     inkscape:window-x="0"
     inkscape:window-y="0"
     inkscape:window-maximized="0"
     inkscape:current-layer="Livello_1" /><metadata
     id="metadata3"><ns:sfw><ns:slices /><ns:sliceSourceBounds
         width="55.4"
         height="65.6"
         x="2.3"
         y="-6"
         bottomLeftOrigin="true" /></ns:sfw><rdf:RDF><cc:Work
         rdf:about=""><dc:format>image/svg+xml</dc:format><dc:type
           rdf:resource="http://purl.org/dc/dcmitype/StillImage" /></cc:Work></rdf:RDF></metadata><g
     transform="matrix(0.9122 0 0 1 2.3054 58.7054)"
     style="font-size:31.45800018px;font-family:ARJULIAN;fill:#ffffff"
     id="text7" /><g
     id="g29"><path
       id="path31"
       style="fill:#ffffff"
       d="m 36.2,16.8 c 4.1,0 8.2,0 12.1,0 1.4,0 1.4,-2.5 0,-2.5 -4.1,0 -8.2,0 -12.1,0 -1.4,0.2 -1.4,2.5 0,2.5 l 0,0 z m -0.299998,-0.2 12.399997,0 M 31.1,17.2 l -6.7,0 c -0.4,0 -0.7,-0.4 -0.7,-0.8 l 0,-7 c 0,-0.4 0.4,-0.8 0.7,-0.8 l 6.7,0 c 0.4,0 0.7,0.4 0.7,0.8 l 0,7.1 c 0.2,0.3 -0.2,0.7 -0.7,0.7 z m -14.899999,16.599999 7.3,0 0,1.1 -7.3,0 z M 33.9,59.6 l -3.2,-1.2 2.5,-7.7 3.2,1.2 z m 15.3,-30 -24.8,0 c -0.5,0 -0.9,-0.4 -0.9,-1 l 0,0 c 0,-0.6 0.4,-1 0.9,-1 l 24.8,0 c 0.5,0 0.9,0.4 0.9,1 l 0,0 c 0.1,0.5 -0.4,1 -0.9,1 z m -0.4,-6.7 -24.4,0 c -0.5,0 -1.1,-0.6 -1.1,-1.1 l 0,0 c 0,-0.6 0.5,-1.1 1.1,-1.1 l 24.5,0 c 0.5,0 1.1,0.6 1.1,1.1 l 0,0 c -0.1,0.8 -0.5,1.1 -1.2,1.1 z m 1.1,28.2 m 3.2,-50.7 -31.2,0 c -2.7,0 -4.6,2.5 -4.6,5.5 l 0,28.1 c 1.2,0 2.5,0.2 3.7,0.2 L 21,5.9 c 0,-0.6 0.4,-1.1 0.9,-1.1 l 31.2,0 c 0.5,0 0.9,0.6 0.9,1.1 l 0,37.1 -5.5,0 c -2.3,0 -4.3,2.3 -4.3,5 l 0,6.5 -12.2,0 c 0,1 0,1.9 0,2.9 0,0.6 0,1 -0.2,1.5 l 13.5,0 c 1.2,0 2.5,-0.6 3.4,-1.7 l 7.6,-9 c 0.9,-1 1.4,-2.5 1.4,-3.8 l 0,-38.3 c 0.2,-3.2 -2,-5.7 -4.6,-5.7 z m -5,51.2 0,-3.8 c 0,-0.4 0.2,-0.6 0.5,-0.6 l 3.2,0 -3.7,4.4 z m -17.518964,7.1054 -7.986676,-22.933005 2.956471,0 6.62754,19.307962 6.641552,-19.307962 2.94246,0 -7.972665,22.933005 -3.208682,0 z m -9.794187,-21.166565 0,3.271755 q -1.429195,-1.459233 -3.054553,-2.18117 -1.611347,-0.721936 -3.43287,-0.721936 -3.586998,0 -5.4925912,2.411575 -1.905593,2.396215 -1.905593,6.942879 0,4.531304 1.905593,6.942879 1.9055932,2.396215 5.4925912,2.396215 1.821523,0 3.43287,-0.721937 1.625358,-0.721936 3.054553,-2.18117 l 0,3.241035 q -1.485241,1.105945 -3.152635,1.658918 -1.653383,0.552972 -3.502928,0.552972 -4.749971,0 -7.4822551,-3.179593 -2.732284,-3.194953 -2.732284,-8.709319 0,-5.529727 2.732284,-8.709319 2.7322841,-3.194954 7.4822551,-3.194954 1.877569,0 3.530951,0.552973 1.667394,0.537612 3.124612,1.628197 z m 16.313149,14.261164 1.200001,0 0,7.1 -1.200001,0 z" /></g></svg>