<?xml version="1.0" encoding="UTF-8" standalone="no"?>
<!-- Generator: Adobe Illustrator 18.0.0, SVG Export Plug-In . SVG Version: 6.00 Build 0)  -->

<svg
   xmlns:ns="&amp;ns_sfw;"
   xmlns:dc="http://purl.org/dc/elements/1.1/"
   xmlns:cc="http://creativecommons.org/ns#"
   xmlns:rdf="http://www.w3.org/1999/02/22-rdf-syntax-ns#"
   xmlns:svg="http://www.w3.org/2000/svg"
   xmlns="http://www.w3.org/2000/svg"
   xmlns:sodipodi="http://sodipodi.sourceforge.net/DTD/sodipodi-0.dtd"
   xmlns:inkscape="http://www.inkscape.org/namespaces/inkscape"
   version="1.1"
   id="Livello_1"
   x="0px"
   y="0px"
   viewBox="0 0 60 60"
   enable-background="new 0 0 60 60"
   xml:space="preserve"
   inkscape:version="0.91 r13725"
   sodipodi:docname="curriculum--1.svg"><defs
     id="defs15" /><sodipodi:namedview
     pagecolor="#ffffff"
     bordercolor="#666666"
     borderopacity="1"
     objecttolerance="10"
     gridtolerance="10"
     guidetolerance="10"
     inkscape:pageopacity="0"
     inkscape:pageshadow="2"
     inkscape:window-width="755"
     inkscape:window-height="480"
     id="namedview13"
     showgrid="false"
     inkscape:zoom="3.9333333"
     inkscape:cx="30"
     inkscape:cy="30"
     inkscape:window-x="0"
     inkscape:window-y="0"
     inkscape:window-maximized="0"
     inkscape:current-layer="Livello_1" /><metadata
     id="metadata3"><ns:sfw><ns:slices /><ns:sliceSourceBounds
         width="58.5"
         height="58.4"
         x="0.7"
         y="0.7"
         bottomLeftOrigin="true" /></ns:sfw><rdf:RDF><cc:Work
         rdf:about=""><dc:format>image/svg+xml</dc:format><dc:type
           rdf:resource="http://purl.org/dc/dcmitype/StillImage" /></cc:Work></rdf:RDF></metadata><path
     id="path7"
     style="fill:#ffffff"
     d="m 6.1992188,0.90039062 c -3,0 -5.50000005,2.49999998 -5.50000005,5.49999998 l 0,47.5000004 c 0,3 2.50000005,5.5 5.50000005,5.5 l 47.5000002,0 c 3,0 5.5,-2.5 5.5,-5.5 l 0,-47.5000004 c 0,-3 -2.5,-5.49999998 -5.5,-5.49999998 l -47.5000002,0 z m 0,3.69921878 47.5000002,0 c 1,0 1.800781,0.8007812 1.800781,1.8007812 l 0,47.4003904 c 0,0.3 -0.09922,0.498828 -0.199219,0.798828 l -0.800781,-4.5 c -0.3,-0.3 -0.699219,-0.598828 -1.199219,-0.798828 -2.2,-1.1 -4.50039,-2.1 -6.90039,-3 -0.2,-0.1 -0.400391,-0.20039 -0.400391,-0.40039 -0.2,-0.4 -0.3,-0.900782 -0.5,-1.300782 -0.1,-0.3 -0.2,-0.599218 -0.5,-0.699218 -0.1,0 -0.199219,-0.200782 -0.199219,-0.300782 0,-1 -0.2,-2.1 0.5,-3 l 0,-0.09961 c 0.4,-0.9 0.49961,-1.900781 1.09961,-2.800781 l 0,-0.09961 c 0.1,-0.6 0.09922,-1.30039 0.199218,-1.90039 C 46.599609,35.599219 46.5,35.5 46.5,35.5 46.2,35.4 46.199219,35.100391 46.199219,34.900391 l 0,-3.701172 c 0,-0.7 -0.198828,-1.398438 -0.798828,-1.898438 -0.6,-0.6 -1.300391,-1.101562 -1.900391,-1.601562 -0.3,-0.3 -0.3,-0.499219 0,-0.699219 0.1,-0.1 0.300391,-0.200781 0.400391,-0.300781 0,-0.1 -0.09961,-0.09922 -0.09961,-0.199219 l -0.601562,0 c -0.7,0.1 -1.39961,0.200391 -2.09961,0.400391 -1.3,0.3 -2.599218,0.699609 -3.699218,1.599609 C 36.700391,29.1 36.1,29.800781 36,30.800781 l 0,1.59961 L 36,35 c 0,0.1 -0.09922,0.400391 -0.199219,0.400391 C 35.500781,35.500391 35.4,35.7 35.5,36 c 0,0.2 -3.91e-4,0.399609 0.09961,0.599609 0.1,0.5 0.300391,1.09961 0.400391,1.59961 0.1,0.4 0.300391,0.801172 0.400391,1.201172 0.1,0.8 0.4,1.499609 1,2.099609 0.1,0.1 0.199609,0.300391 0.09961,0.400391 0,0.6 -0.09922,1.198828 -0.199219,1.798828 0,0.1 -0.101172,0.300781 -0.201172,0.300781 -0.4,0.1 -0.499609,0.399219 -0.599609,0.699219 -0.1,0.4 -0.300391,0.801172 -0.400391,1.201172 -0.1,0.1 -0.198828,0.298828 -0.298828,0.298828 -0.7,0.3 -1.501172,0.60039 -2.201172,0.90039 -0.8,0.3 -1.598828,0.6 -2.298828,1 -0.8,0.4 -1.500781,0.801172 -2.300781,1.201172 -0.4,0.2 -0.899219,0.498828 -1.199219,0.798828 l -1,5.5 -20.6015622,0 c -1,0 -1.7988282,-0.798828 -1.7988282,-1.798828 l 0,-47.4003904 c 0,-1 0.7988282,-1.8007812 1.7988282,-1.8007812 z M 26,10 c -3.5,0 -6.199219,2.199609 -6.199219,6.099609 0,3.3 2,5.701172 6,5.701172 1.4,0 2.498438,-0.2 2.898438,-0.5 l -0.398438,-2 c -0.5,0.2 -1.401172,0.398438 -2.201172,0.398438 -2.3,0 -3.699218,-1.399219 -3.699218,-3.699219 0,-2.6 1.599218,-3.800781 3.699218,-3.800781 0.9,0 1.701172,0.20039 2.201172,0.40039 l 0.5,-2 C 28.300781,10.299609 27.3,10 26,10 Z m 3.599609,0.199219 3.701172,11.40039 3,0 3.898438,-11.40039 -2.699219,0 -1.599609,4.90039 c -0.4,1.3 -0.7,2.7 -1,4 l -0.09961,0 c -0.3,-1.4 -0.6,-2.699609 -1,-4.099609 l -1.40039,-4.800781 -2.800782,0 z" /></svg>