<?xml version="1.0" encoding="utf-8"?>
<!-- Generator: Adobe Illustrator 18.0.0, SVG Export Plug-In . SVG Version: 6.00 Build 0)  -->
<!DOCTYPE svg PUBLIC "-//W3C//DTD SVG 1.1//EN" "http://www.w3.org/Graphics/SVG/1.1/DTD/svg11.dtd" [
	<!ENTITY ns_extend "http://ns.adobe.com/Extensibility/1.0/">
	<!ENTITY ns_ai "http://ns.adobe.com/AdobeIllustrator/10.0/">
	<!ENTITY ns_graphs "http://ns.adobe.com/Graphs/1.0/">
	<!ENTITY ns_vars "http://ns.adobe.com/Variables/1.0/">
	<!ENTITY ns_imrep "http://ns.adobe.com/ImageReplacement/1.0/">
	<!ENTITY ns_sfw "http://ns.adobe.com/SaveForWeb/1.0/">
	<!ENTITY ns_custom "http://ns.adobe.com/GenericCustomNamespace/1.0/">
	<!ENTITY ns_adobe_xpath "http://ns.adobe.com/XPath/1.0/">
]>
<svg version="1.1" id="Livello_1" xmlns:x="&ns_extend;" xmlns:i="&ns_ai;" xmlns:graph="&ns_graphs;"
	 xmlns="http://www.w3.org/2000/svg" xmlns:xlink="http://www.w3.org/1999/xlink" x="0px" y="0px" viewBox="0 0 60 60"
	 enable-background="new 0 0 60 60" xml:space="preserve">
<metadata>
	<sfw  xmlns="&ns_sfw;">
		<slices></slices>
		<sliceSourceBounds  width="47.9" height="59.8" x="6.4" y="0.2" bottomLeftOrigin="true"></sliceSourceBounds>
	</sfw>
</metadata>
<g>
	<g id="_x34_2._Cup_1_">
		<path fill="#FFFFFF" d="M53.3,8.3c-0.2-0.2-0.5-0.4-0.9-0.4h-6.9V1.3C45.5,0.6,45,0,44.3,0H15.7c-0.7,0-1.2,0.6-1.2,1.3v6.6H7.6
			c-0.7,0-1.2,0.6-1.2,1.3c0,6.1,3.4,11.7,8.5,14c1.3,6.2,5.7,11.1,11.3,12.6c0.2,3.1-1.7,6-4.5,6.7l0,0c0,0,0,0-0.1,0l0,0
			c0,0,0,0-0.1,0c0,0,0,0-0.1,0l0,0c0,0,0,0-0.1,0l0,0c0,0,0,0-0.1,0.1l0,0c0,0,0,0-0.1,0.1l0,0c0,0,0,0,0,0.1l0,0c0,0,0,0,0,0.1
			l0,0c0,0,0,0,0,0.1c0,0,0,0,0,0.1c0,0,0,0,0,0.1c0,0,0,0,0,0.1c0,0,0,0,0,0.1c0,0,0,0,0,0.1v0.1l0,0v0.1l0,0v0.1l0,0l0,0l0,0v4
			h-3.4c-0.7,0-1.2,0.6-1.2,1.3v9.4c0,0.4,0.1,0.7,0.4,0.9c0.2,0.2,0.5,0.4,0.9,0.4h25.7c0.7,0,1.2-0.6,1.2-1.3v-9.4
			c0-0.7-0.6-1.3-1.2-1.3h-3.4v-4c0-0.4-0.1-0.7-0.3-0.9l0,0l-0.1-0.1l0,0c0,0-0.1,0-0.1-0.1l0,0c0,0-0.1,0-0.1-0.1l0,0
			c0,0-0.1,0-0.1-0.1l0,0h-0.1l0,0h-0.1l0,0c-2.9-0.7-4.8-3.6-4.5-6.8c5.5-1.6,9.8-6.5,11.1-12.6c5.1-2.3,8.5-7.9,8.5-14
			C53.7,8.9,53.5,8.5,53.3,8.3z M7.8,9.3h6.6v11.4l0,0c0,0.3,0,0.5,0,0.8C10.8,19,8.3,14.4,7.8,9.3z M42.6,49.8v8.7H17.7v-8.7H42.6z
			 M37.7,43.9V48H22.5v-4.1H37.7z M25.2,42.6c0.4-0.4,0.9-0.8,1.2-1.3c1.1-1.5,1.7-3.2,1.7-4.9c0.6,0,1.2,0.1,1.8,0.1
			c0.7,0,1.3,0,2-0.1c0,2.3,1.1,4.6,2.9,6.2H25.2z M43.9,19.6c0,8.4-6.3,15.2-14,15.2C22.3,34.8,16,28,16,19.6V1.8h27.9V19.6z
			 M45.5,21.6c0-0.3,0-0.5,0-0.8l0,0V9.2h6.6C51.7,14.3,49.2,18.9,45.5,21.6z"/>
		<path fill="#FFFFFF" d="M33.8,53.2h-7.6c-0.7,0-1.2,0.4-1.2,0.8c0,0.4,0.5,0.8,1.2,0.8h7.6c0.7,0,1.2-0.4,1.2-0.8
			C35.1,53.5,34.5,53.2,33.8,53.2z"/>
		<path fill="#FFFFFF" d="M37.4,14.7c-0.1-0.5-0.5-0.8-1-0.9l-3.6-0.6l-1.6-3.6c-0.2-0.5-0.6-0.7-1.1-0.7S29.2,9.2,29,9.6l-1.6,3.6
			l-3.6,0.6c-0.5,0.1-0.8,0.4-1,0.9c-0.1,0.5,0,1,0.3,1.4l2.6,2.8l-0.6,4c-0.1,0.5,0.1,1,0.5,1.3s0.9,0.3,1.3,0.1l3.3-1.9l3.2,1.9
			c0.2,0.1,0.4,0.2,0.6,0.2c0.3,0,0.5-0.1,0.7-0.3c0.4-0.3,0.6-0.8,0.5-1.3l-0.6-4l2.6-2.8C37.4,15.7,37.5,15.2,37.4,14.7z
			 M33.8,17.4c-0.5,0.5-0.7,1.3-0.6,2.1l0.5,3.4L31,21.3c-0.3-0.2-0.6-0.3-0.9-0.3s-0.7,0.1-1,0.3l-2.7,1.6l0.5-3.4
			c0.1-0.8-0.1-1.5-0.6-2.1L24.2,15l3-0.5c0.7-0.1,1.2-0.6,1.5-1.3l1.4-3.1l1.4,3.1c0.3,0.7,0.9,1.2,1.5,1.3l3,0.5L33.8,17.4z"/>
	</g>
</g>
</svg>
