<?xml version="1.0" encoding="UTF-8" standalone="no"?>
<!-- Generator: Adobe Illustrator 18.0.0, SVG Export Plug-In . SVG Version: 6.00 Build 0)  -->

<svg
   xmlns:ns="&amp;#38;ns_sfw;"
   xmlns:dc="http://purl.org/dc/elements/1.1/"
   xmlns:cc="http://creativecommons.org/ns#"
   xmlns:rdf="http://www.w3.org/1999/02/22-rdf-syntax-ns#"
   xmlns:svg="http://www.w3.org/2000/svg"
   xmlns="http://www.w3.org/2000/svg"
   xmlns:sodipodi="http://sodipodi.sourceforge.net/DTD/sodipodi-0.dtd"
   xmlns:inkscape="http://www.inkscape.org/namespaces/inkscape"
   version="1.1"
   id="Livello_1"
   x="0px"
   y="0px"
   viewBox="0 0 17 17"
   enable-background="new 0 0 17 17"
   xml:space="preserve"
   inkscape:version="0.91 r13725"
   sodipodi:docname="gioca--1.svg"><defs
     id="defs9" /><sodipodi:namedview
     pagecolor="#ffffff"
     bordercolor="#666666"
     borderopacity="1"
     objecttolerance="10"
     gridtolerance="10"
     guidetolerance="10"
     inkscape:pageopacity="0"
     inkscape:pageshadow="2"
     inkscape:window-width="755"
     inkscape:window-height="480"
     id="namedview7"
     showgrid="false"
     inkscape:zoom="13.882353"
     inkscape:cx="-3.8898305"
     inkscape:cy="8.5"
     inkscape:window-x="20"
     inkscape:window-y="20"
     inkscape:window-maximized="0"
     inkscape:current-layer="Livello_1" /><metadata
     id="metadata3"><ns:sfw><ns:slices /><ns:sliceSourceBounds
         width="17"
         height="17"
         x="21"
         y="22"
         bottomLeftOrigin="true" /></ns:sfw><rdf:RDF><cc:Work
         rdf:about=""><dc:format>image/svg+xml</dc:format><dc:type
           rdf:resource="http://purl.org/dc/dcmitype/StillImage" /><dc:title></dc:title></cc:Work></rdf:RDF></metadata><path
     d="M 2.3007812 0 L 2.3007812 0.5 L 2.3007812 1 L 0 1 L 0 1.5 C 0 2.6 0.09921875 3.7007813 0.19921875 4.8007812 C 0.59921875 7.7007813 1.5 11.100391 3 11.900391 C 3.2 12.000391 3.3996094 12 3.5996094 12 C 3.7996094 12 4.1007813 11.900781 4.3007812 11.800781 L 4.5 11.699219 C 5.3 12.999219 6.5 13.8 8 14 L 8 16 L 5 16 L 5 17 L 12 17 L 12 16 L 9 16 L 9 14 C 10.4 13.9 11.6 13.099219 12.5 11.699219 L 12.699219 11.900391 C 12.899219 12.000391 13.100391 12.099609 13.400391 12.099609 C 13.600391 12.099609 13.8 12.1 14 12 C 15.5 11.3 16.400781 7.8003906 16.800781 4.9003906 C 16.900781 3.7003906 17 2.6 17 1.5 L 17 1 L 14.699219 1 L 14.699219 0.5 L 14.699219 0 L 2.3007812 0 z M 3.3007812 1 L 13.800781 1 C 13.700781 5.7 12.9 13 8.5 13 C 4 13 3.3007813 5 3.3007812 1 z M 1 2 L 2.3007812 2 C 2.4007813 4.9 2.7996094 8.5 4.0996094 11 L 4 10.800781 L 3.8007812 11 C 3.7007812 11.1 3.6 11.1 3.5 11 C 2.7 10.6 1.7007813 8.2992188 1.3007812 4.6992188 C 1.1007813 3.7992187 1 2.9 1 2 z M 14.699219 2 L 16 2 C 16 2.9 15.900781 3.7992187 15.800781 4.6992188 C 15.400781 8.2992187 14.299609 10.6 13.599609 11 C 13.499609 11.1 13.400781 11.1 13.300781 11 L 13 10.800781 L 12.900391 11 C 14.000391 9 14.599219 5.9 14.699219 2 z "
     id="path5" /></svg>