<?xml version="1.0" encoding="UTF-8" standalone="no"?>
<!-- Generator: Adobe Illustrator 18.0.0, SVG Export Plug-In . SVG Version: 6.00 Build 0)  -->

<svg
   xmlns:ns="&amp;ns_sfw;"
   xmlns:dc="http://purl.org/dc/elements/1.1/"
   xmlns:cc="http://creativecommons.org/ns#"
   xmlns:rdf="http://www.w3.org/1999/02/22-rdf-syntax-ns#"
   xmlns:svg="http://www.w3.org/2000/svg"
   xmlns="http://www.w3.org/2000/svg"
   xmlns:sodipodi="http://sodipodi.sourceforge.net/DTD/sodipodi-0.dtd"
   xmlns:inkscape="http://www.inkscape.org/namespaces/inkscape"
   version="1.1"
   id="Livello_1"
   x="0px"
   y="0px"
   viewBox="0 0 60 60"
   enable-background="new 0 0 60 60"
   xml:space="preserve"
   inkscape:version="0.91 r13725"
   sodipodi:docname="pix--2.svg"><defs
     id="defs11" /><sodipodi:namedview
     pagecolor="#ffffff"
     bordercolor="#666666"
     borderopacity="1"
     objecttolerance="10"
     gridtolerance="10"
     guidetolerance="10"
     inkscape:pageopacity="0"
     inkscape:pageshadow="2"
     inkscape:window-width="755"
     inkscape:window-height="480"
     id="namedview9"
     showgrid="false"
     inkscape:zoom="3.9333333"
     inkscape:cx="30"
     inkscape:cy="30"
     inkscape:window-x="965"
     inkscape:window-y="22"
     inkscape:window-maximized="0"
     inkscape:current-layer="Livello_1" /><metadata
     id="metadata3"><ns:sfw><ns:slices /><ns:sliceSourceBounds
         width="58.6"
         height="58.5"
         x="0.7"
         y="1.1"
         bottomLeftOrigin="true" /></ns:sfw><rdf:RDF><cc:Work
         rdf:about=""><dc:format>image/svg+xml</dc:format><dc:type
           rdf:resource="http://purl.org/dc/dcmitype/StillImage" /></cc:Work></rdf:RDF></metadata><path
     id="path7"
     style="fill:#ffffff"
     d="m 27,0.40039062 c -2.7,0 -26.00039062,0.2 -26.40039062,6.49999998 l 0,7.5996094 c 0,2.1 2.40000002,3.700391 6.00000002,4.900391 0,0.2 -0.099609,0.4 -0.099609,0.5 L 6.5,27.5 c -3.8,1.1 -5.80078125,2.500391 -5.80078125,4.400391 l 0,7.599609 c 0,1.4 1.20156255,2.599219 3.10156245,3.699219 -0.1,0.2 -0.1015625,0.401172 -0.1015624,0.701172 l 0,7.599609 c 0,3.6 7.3003902,5.800391 15.4003902,6.900391 l 0.201172,0 0.09961,0 c 1.6,0.2 3.199218,0.3 4.699218,0.5 l 0.09961,0 0.101562,0 c 2,0.1 3.998828,0.199218 5.798828,0.199218 1.8,0 3.800782,-0.09922 5.800782,-0.199218 l 0.09961,0 0.09961,0 c 1.6,-0.1 3.201172,-0.3 4.701172,-0.5 l 0.09961,0 0.199218,0 C 49.199609,57.400391 56.5,55.1 56.5,51.5 l 0,-7.599609 C 56.4,42.600391 55.400391,41.5 53.400391,40.5 c 0.1,-0.3 0.199218,-0.6 0.199218,-1 l 0,-7.099609 c 3.5,-1.2 5.900391,-2.800782 5.900391,-4.800782 l -0.300781,-7.699218 c -0.1,-1.9 -2.09961,-3.300391 -6.09961,-4.400391 0.1,-0.3 0.201172,-0.7 0.201172,-1 l 0,-7.5996094 C 53.000781,0.60039063 29.7,0.40039062 27,0.40039062 Z M 27,2.5996094 C 43.1,2.5996094 51.200391,5.4 51.400391,7 c -0.1,0.7 -1.600782,1.6996094 -4.300782,2.5996094 -3.5,1.1999996 -8.899218,2.2996096 -15.699218,2.5996096 l -1.09961,0 -0.90039,0 -2.5,0 -2.5,0 -0.900391,0 -1.099609,0 c -6.9,-0.3 -12.301172,-1.39961 -15.7011722,-2.5996096 C 4.2992187,8.6996094 2.7996094,7.7 2.5996094,7 2.7996094,5.4 10.9,2.5996094 27,2.5996094 Z m 24.400391,7.3007812 0,4.5000004 c 0,0.2 -0.0012,0.399609 -0.201172,0.599609 l -0.398438,0.300781 c -0.5,0.4 -1.300781,0.898828 -2.300781,1.298828 l 0,-5.199218 c 1.2,-0.4 2.200391,-0.9 2.900391,-1.5000004 z M 2.5996094,10 C 3.3996094,10.5 4.4,11 5.5,11.5 l 0,5.199219 C 3.7,15.899219 2.5996094,15.1 2.5996094,14.5 l 0,-4.5 z M 7.5,12.199219 c 0.9,0.3 1.9003906,0.501172 2.900391,0.701172 l 0,5.298828 c -0.1,0 -0.200391,-0.09961 -0.400391,-0.09961 -0.5,-0.1 -1,-0.30039 -1.5,-0.40039 -0.3,-0.1 -0.7,-0.198828 -1,-0.298828 l 0,-5.201172 z m 39,0 0,5.201172 c -0.8,0.2 -1.800391,0.498828 -2.900391,0.798828 l 0,-5.298828 c 1,-0.2 2.000391,-0.501172 2.900391,-0.701172 z m -34.199219,1 c 1,0.2 2,0.4 3,0.5 l 0,5.40039 c -0.2,0 -0.401562,3.91e-4 -0.601562,-0.09961 -0.1,0 -0.198438,3.91e-4 -0.398438,-0.09961 -0.6,-0.1 -1.101172,-0.200782 -1.701172,-0.300782 -0.1,0 -0.198828,3.91e-4 -0.298828,-0.09961 l 0,-5.300781 z m 29.298828,0 0,5.300781 c -0.9,0.3 -1.80039,0.399609 -2.90039,0.599609 l 0,-5.40039 c 1,-0.1 2.00039,-0.3 2.90039,-0.5 z M 17.300781,14 c 1,0.1 1.898438,0.200781 2.898438,0.300781 l 0,5.398438 c -1,-0.2 -1.998438,-0.198438 -2.898438,-0.398438 l 0,-5.300781 z m 19.5,0 0,5.400391 c -0.9,0.1 -1.90039,0.198828 -2.90039,0.298828 l 0,-5.398438 c 1,-0.1 1.90039,-0.200781 2.90039,-0.300781 z m -14.701172,0.400391 c 1,0 2.000391,0.09961 2.900391,0.09961 l 0.199219,0 0.800781,0 0,5.400391 c -1.3,0 -2.600391,-0.09961 -3.900391,-0.09961 l 0,-5.40039 z m 9.800782,0 0,5.40039 -0.5,0 c -0.7,0 -1.3,0.09961 -2,0.09961 l -0.300782,0 -1.099609,0 L 28,14.5 28.800781,14.5 29,14.5 c 1,0 2.000391,-0.09961 2.900391,-0.09961 z m 19.40039,3 c 4.7,1 5.9,2.099609 6,2.599609 -0.1,0.7 -1.600781,1.699609 -4.300781,2.599609 -3.5,1.2 -8.899219,2.29961 -15.699219,2.59961 l -1.101562,0 -0.898438,0 -2.5,0 -2.5,0 -0.90039,0 -1.09961,0 c -6.8,-0.3 -12.301172,-1.39961 -15.701172,-2.59961 C 9.8996094,21.699609 8.4007812,20.7 8.3007812,20 l 0,-0.09961 C 8.4007812,19.900391 8.4,19.9 8.5,20 l 1.1992188,0.300781 c 1.9000002,0.5 4.1003902,0.79961 6.4003902,1.09961 1.6,0.2 3.200782,0.3 4.800782,0.5 1.2,0.1 2.399609,0.09922 3.599609,0.199218 l 2.199219,0 1.601562,0 c 7.1,-0.1 13.699219,-1.1 18.199219,-2.5 0.2,-0.1 0.399609,-0.09922 0.599609,-0.199218 0.1,0 0.300391,-0.09961 0.400391,-0.09961 0.4,-0.1 0.7,-0.30039 1,-0.40039 0.1,0 0.09922,3.9e-4 0.199219,-0.09961 0.3,-0.1 0.500781,-0.20039 0.800781,-0.40039 0.1,0 0.09922,-0.09961 0.199219,-0.09961 0.3,-0.1 0.500781,-0.30039 0.800781,-0.40039 0.1,-0.1 0.200781,-0.101172 0.300781,-0.201172 0.1,-0.1 0.198828,-0.199219 0.298828,-0.199219 0.1,0 0.101172,-0.09961 0.201172,-0.09961 z M 8.5,23 c 0.8,0.5 1.700391,1 2.900391,1.5 l 0,5.199219 c -1.5000004,-0.7 -2.5007816,-1.298438 -2.8007816,-1.898438 L 8.5,27.699219 8.5,27.599609 8.5,23 Z m 48.800781,0 0,4.5 c 0,0.6 -1.00039,1.399219 -2.90039,2.199219 l 0,-5.199219 c 1.2,-0.4 2.20039,-0.9 2.90039,-1.5 z M 52.5,25.099609 l 0,5.201172 C 52.3,30.400781 52.1,30.5 52,30.5 c -0.5,0.1 -1,0.300391 -1.5,0.400391 -0.2,0.1 -0.499219,0.09922 -0.699219,0.199218 -0.1,0 -0.201172,-3.9e-4 -0.201172,0.09961 l 0,-5.298828 c 1,-0.2 2.000391,-0.500782 2.900391,-0.800782 z m -39.099609,0.09961 c 0.9,0.2 1.90039,0.501172 2.90039,0.701172 l 0,5.298828 c -1.1,-0.3 -2.10039,-0.498828 -2.90039,-0.798828 l 0,-5.201172 z m 34,0.90039 0,5.5 c -0.4,0.1 -0.900782,0.201172 -1.300782,0.201172 -0.3,0 -0.498828,0.09961 -0.798828,0.09961 C 45.100781,31.900391 44.8,32 44.5,32 l 0,-5.400391 c 1,-0.1 2.000391,-0.3 2.900391,-0.5 z m -29.09961,0.201172 c 0.9,0.2 1.898438,0.3 2.898438,0.5 l 0,5.398438 c -0.6,-0.2 -1.198828,-0.298438 -1.798828,-0.398438 -0.4,-0.1 -0.69961,-0.101172 -1.09961,-0.201172 l 0,-5.298828 z m 24.298828,0.59961 0,5.40039 c -0.6,0.1 -1.099218,0.09922 -1.699218,0.199219 l -0.09961,0 c -0.4,0 -0.701562,0.09961 -1.101562,0.09961 l 0,-5.40039 c 1,-0.1 2.00039,-0.198828 2.90039,-0.298828 z M 23.099609,27 C 24.099609,27.1 25,27.200781 26,27.300781 l 0,5.398438 c 0,-0.1 -0.09922,-0.09961 -0.199219,-0.09961 l -0.40039,0 c -0.6,-0.1 -1.200782,-0.09922 -1.800782,-0.199218 l -0.40039,0 -0.09961,0 0,-5.400391 z M 28,27.400391 c 1,0.1 2.000391,0.09961 2.900391,0.09961 l 0.199218,0 0.800782,0 0,5.400391 -1.400391,0 -0.199219,0 c -0.7,0 -1.501172,-0.09961 -2.201172,-0.09961 l -0.09961,0 0,-5.40039 z m 9.699219,0 0,5.40039 c -1.3,0.1 -2.598438,0.09961 -3.898438,0.09961 l 0,-5.400391 0.798828,0 0.201172,0 c 1,0 1.998438,-0.09961 2.898438,-0.09961 z M 7.4003906,29.5 C 8.8003906,31 11.6,32.199609 15,33.099609 c 0.1,0 0.199219,-3.9e-4 0.199219,0.09961 0.3,0.1 0.500781,0.101172 0.800781,0.201172 3.2,0.7 6.899609,1.299609 11.099609,1.599609 1.3,0.1 2.69961,0.09922 4.09961,0.199219 l 1.800781,0 2.099609,0 c 1.3,0 2.500782,-0.09922 3.800782,-0.199219 4.1,-0.3 7.998828,-0.799609 11.298828,-1.599609 -0.7,0.4 -1.698438,0.799218 -2.898438,1.199218 -3.6,1.3 -9.50039,2.401172 -16.90039,2.701172 l -0.701172,0 -0.699219,0 -1.900391,0 -2.5,0 -0.90039,0 -1.09961,0 c -6.9,-0.3 -12.299218,-1.401562 -15.6992184,-2.601562 -2.7,-0.9 -4.2007812,-1.89961 -4.3007812,-2.59961 0.1,-0.6 1.1007812,-1.599609 4.8007812,-2.599609 z m -4.8007812,5.400391 c 0.8,0.5 1.8003906,1 2.9003906,1.5 l 0,5.199218 L 5,41.300781 c -1.6,-0.7 -2.4003906,-1.40039 -2.4003906,-1.90039 l 0,-4.5 z m 48.8007816,0 0,4.5 c 0,0.1 3.9e-4,0.20039 -0.09961,0.40039 L 51,40.099609 c -0.5,0.5 -1.4,1 -2.5,1.5 l 0,-5.199218 c 1.2,-0.4 2.200391,-0.9 2.900391,-1.5 z M 7.5,37 c 0.9,0.3 1.9003906,0.500781 2.900391,0.800781 l 0,5.298828 c -0.9000004,-0.2 -1.7000004,-0.399218 -2.5000004,-0.699218 -0.1,0 -0.2007812,3.9e-4 -0.3007812,-0.09961 L 7.5,37 Z m 39,0.09961 0,5.201172 c -0.9,0.3 -1.900391,0.598828 -2.900391,0.798828 l 0,-5.298828 c 1,-0.2 2.000391,-0.501172 2.900391,-0.701172 z m -4.900391,1 0,5.300782 c -0.8,0.3 -1.80039,0.499609 -2.90039,0.599609 l 0,-5.400391 c 1,-0.1 2.00039,-0.3 2.90039,-0.5 z m -29.199218,0.09961 c 0.9,0.2 1.90039,0.3 2.90039,0.5 l 0,5.300781 c -1,-0.2 -2.00039,-0.3 -2.90039,-0.5 l 0,-5.300781 z m 4.90039,0.701172 c 1,0.1 1.898438,0.198828 2.898438,0.298828 l 0,5.40039 -2.398438,-0.298828 -0.300781,0 -0.199219,0 0,-5.40039 z m 19.398438,0 0,5.40039 c -0.6,0.1 -1.198438,0.09922 -1.898438,0.199219 L 34.5,44.5 c -0.2,0 -0.399219,-3.91e-4 -0.699219,0.09961 l 0,-5.40039 c 1,-0.1 1.998438,-0.198828 2.898438,-0.298828 z m -14.59961,0.40039 c 1,0.1 2.000391,0.09961 2.900391,0.09961 l 0.199219,0 0.800781,0 0,5.40039 -0.599609,0 -0.201172,0 -1.298828,0 -0.201172,0 c -0.5,0 -1.09961,-0.0016 -1.59961,-0.101562 l 0,-5.398438 z m 9.800782,0 0,5.398438 -0.59961,0 c -0.6,0.1 -1.200781,0.101562 -1.800781,0.101562 l -0.400391,0 -1.099609,0 0,-5.40039 0.800781,0 0.199219,0 c 1,0 2.000391,-0.09961 2.900391,-0.09961 z M 51.599609,42 c 2.2,0.9 2.700782,1.600781 2.800782,1.800781 -0.1,0.7 -1.600782,1.69961 -4.300782,2.59961 -3.5,1.2 -8.899218,2.299609 -15.699218,2.599609 l -1.09961,0 -0.90039,0 -2.5,0 -2.5,0 L 26.5,49 25.400391,49 c -6.9,-0.3 -12.301172,-1.399609 -15.7011722,-2.599609 -2.6,-0.9 -4.0988282,-1.79961 -4.2988282,-2.59961 l 0.9003906,0.298828 0.099609,0 c 0.3,0.1 0.4988282,0.200782 0.7988282,0.300782 0.1,0 0.2007812,0.09961 0.3007812,0.09961 0.2,0 0.3,0.09961 0.5,0.09961 3.6,1 8.1,1.69961 13,2.09961 1.5,0.1 3.099609,0.201172 4.599609,0.201172 l 1.201172,0 1.59961,0 c 1.4,0 2.799218,-0.101172 4.199218,-0.201172 1.7,-0.1 3.300391,-0.3 4.900391,-0.5 l 0.09961,0 c 1.7,-0.2 3.400391,-0.498828 4.900391,-0.798828 0.3,-0.1 0.600391,-0.101172 0.900391,-0.201172 l 0.199218,0 c 2.9,-0.7 5.39961,-1.49961 7.09961,-2.59961 0.1,-0.1 0.200781,-0.09922 0.300781,-0.199218 0.1,-0.1 0.200781,-0.101172 0.300781,-0.201172 0.1,-0.1 0.198828,-0.09922 0.298828,-0.199219 z M 5.5,46.800781 c 0.8,0.5 1.8003906,1 2.9003906,1.5 l 0,5.199219 C 6.6003906,52.7 5.5,51.900781 5.5,51.300781 l 0,-4.5 z m 48.800781,0 0,4.5 c 0.1,0.6 -1.00039,1.399219 -2.90039,2.199219 l 0,-5.199219 c 1.2,-0.4 2.10039,-0.9 2.90039,-1.5 z M 10.5,49 c 0.8,0.3 1.800391,0.499219 2.900391,0.699219 l 0,5.300781 C 12.300391,54.7 11.3,54.499219 10.5,54.199219 L 10.5,49 Z m 39,0 0,5.199219 C 48.6,54.499219 47.599609,54.8 46.599609,55 l 0,-5.300781 C 47.599609,49.499219 48.6,49.2 49.5,49 Z m -34.199219,1.099609 c 0.9,0.2 1.898438,0.3 2.898438,0.5 l 0,5.400391 c -1,-0.2 -1.998438,-0.3 -2.898438,-0.5 l 0,-5.400391 z m 29.298828,0 0,5.300782 c -0.9,0.2 -1.90039,0.3 -2.90039,0.5 l 0,-5.300782 c 1,-0.1 2.00039,-0.3 2.90039,-0.5 z m -24.40039,0.701172 c 1,0.1 1.90039,0.198828 2.90039,0.298828 l 0,5.400391 c -1,-0.1 -2.00039,-0.200781 -2.90039,-0.300781 l 0,-5.398438 z m 19.5,0 0,5.398438 c -0.9,0.1 -1.898438,0.200781 -2.898438,0.300781 l 0,-5.400391 c 1,-0.1 1.998438,-0.198828 2.898438,-0.298828 z m -14.59961,0.398438 c 1,0.1 2.000391,0.101562 2.900391,0.101562 l 0.199219,0 0.800781,0 0,5.398438 c -1.3,0 -2.700391,-0.09961 -3.900391,-0.09961 l 0,-5.40039 z m 9.701172,0 0,5.40039 c -1.3,0.1 -2.60039,0.09961 -3.90039,0.09961 l 0,-5.398438 0.798828,0 0.201172,0 c 1,0 2.00039,-0.101562 2.90039,-0.101562 z" /></svg>