<?xml version="1.0" encoding="utf-8"?>
<!-- Generator: Adobe Illustrator 18.0.0, SVG Export Plug-In . SVG Version: 6.00 Build 0)  -->
<!DOCTYPE svg PUBLIC "-//W3C//DTD SVG 1.1//EN" "http://www.w3.org/Graphics/SVG/1.1/DTD/svg11.dtd" [
	<!ENTITY ns_extend "http://ns.adobe.com/Extensibility/1.0/">
	<!ENTITY ns_ai "http://ns.adobe.com/AdobeIllustrator/10.0/">
	<!ENTITY ns_graphs "http://ns.adobe.com/Graphs/1.0/">
	<!ENTITY ns_vars "http://ns.adobe.com/Variables/1.0/">
	<!ENTITY ns_imrep "http://ns.adobe.com/ImageReplacement/1.0/">
	<!ENTITY ns_sfw "http://ns.adobe.com/SaveForWeb/1.0/">
	<!ENTITY ns_custom "http://ns.adobe.com/GenericCustomNamespace/1.0/">
	<!ENTITY ns_adobe_xpath "http://ns.adobe.com/XPath/1.0/">
]>
<svg version="1.1" id="Livello_1" xmlns:x="&ns_extend;" xmlns:i="&ns_ai;" xmlns:graph="&ns_graphs;"
	 xmlns="http://www.w3.org/2000/svg" xmlns:xlink="http://www.w3.org/1999/xlink" x="0px" y="0px" viewBox="0 0 60 60"
	 enable-background="new 0 0 60 60" xml:space="preserve">
<metadata>
	<sfw  xmlns="&ns_sfw;">
		<slices></slices>
		<sliceSourceBounds  width="59.5" height="59.1" x="0.2" y="0.5" bottomLeftOrigin="true"></sliceSourceBounds>
	</sfw>
</metadata>
<g>
	<path fill="#FFFFFF" d="M44.1,16.5l12.5,3.3l3.2-12.4l-2.4-0.6l-2.1,7.8C50,6,40.7,0.4,30,0.4C13.5,0.4,0.2,13.6,0.2,30
		S13.5,59.5,30,59.5c11,0,20.5-5.9,25.7-14.7l-2.2-1.2C48.8,51.7,40,57.1,30,57.1C14.9,57.1,2.7,44.9,2.7,30S14.9,2.8,30,2.8
		c10.1,0,19,5.5,23.7,13.6l-9-2.4L44.1,16.5z M44.1,16.5"/>
	<path fill="#FFFFFF" d="M31.3,43.1v-2.3c2.2-0.1,3.8-0.7,5.1-1.9c1.3-1.1,1.9-2.6,1.9-4.4c0-1.9-0.5-3.3-1.6-4.1
		c-1.1-1-2.8-1.8-5.2-2.3h-0.1v-5.8c1.6,0.3,3,0.7,4.4,1.8l2-2.8c-2-1.4-4.2-2.1-6.5-2.3v-1.5h-1.9v1.5c-1.9,0.1-3.5,0.7-4.8,1.9
		c-1.3,1.1-1.9,2.6-1.9,4.4c0,1.7,0.5,3.1,1.6,4c1,0.9,2.8,1.6,5.1,2.1v5.9c-1.8-0.3-3.5-1.1-5.3-2.6l-2.3,2.6
		c2.3,2,4.8,3.1,7.6,3.4v2.3H31.3z M31.4,32.1c1.3,0.4,2,0.7,2.5,1.1c0.4,0.5,0.6,1,0.6,1.8c0,0.8-0.3,1.3-0.9,1.8
		c-0.6,0.5-1.4,0.7-2.3,0.9V32.1z M27,26.8c-0.4-0.4-0.6-1-0.6-1.6c0-0.7,0.3-1.3,0.8-1.8c0.6-0.5,1.3-0.7,2.3-0.9v5.4
		C28.1,27.5,27.4,27.1,27,26.8L27,26.8z M27,26.8"/>
</g>
</svg>
