<?xml version="1.0" encoding="UTF-8" standalone="no"?>
<!-- Generator: Adobe Illustrator 18.0.0, SVG Export Plug-In . SVG Version: 6.00 Build 0)  -->

<svg
   xmlns:ns="&amp;ns_sfw;"
   xmlns:dc="http://purl.org/dc/elements/1.1/"
   xmlns:cc="http://creativecommons.org/ns#"
   xmlns:rdf="http://www.w3.org/1999/02/22-rdf-syntax-ns#"
   xmlns:svg="http://www.w3.org/2000/svg"
   xmlns="http://www.w3.org/2000/svg"
   xmlns:sodipodi="http://sodipodi.sourceforge.net/DTD/sodipodi-0.dtd"
   xmlns:inkscape="http://www.inkscape.org/namespaces/inkscape"
   version="1.1"
   id="Livello_1"
   x="0px"
   y="0px"
   viewBox="0 0 60 60"
   enable-background="new 0 0 60 60"
   xml:space="preserve"
   inkscape:version="0.91 r13725"
   sodipodi:docname="profilo-jon.svg"><defs
     id="defs10" /><sodipodi:namedview
     pagecolor="#ffffff"
     bordercolor="#666666"
     borderopacity="1"
     objecttolerance="10"
     gridtolerance="10"
     guidetolerance="10"
     inkscape:pageopacity="0"
     inkscape:pageshadow="2"
     inkscape:window-width="755"
     inkscape:window-height="480"
     id="namedview8"
     showgrid="false"
     inkscape:zoom="3.9333333"
     inkscape:cx="30"
     inkscape:cy="30"
     inkscape:window-x="0"
     inkscape:window-y="0"
     inkscape:window-maximized="0"
     inkscape:current-layer="Livello_1" /><metadata
     id="metadata3"><ns:sfw><ns:slices /><ns:sliceSourceBounds
         width="59.2"
         height="48.6"
         x="0.4"
         y="6.3"
         bottomLeftOrigin="true" /></ns:sfw><rdf:RDF><cc:Work
         rdf:about=""><dc:format>image/svg+xml</dc:format><dc:type
           rdf:resource="http://purl.org/dc/dcmitype/StillImage" /></cc:Work></rdf:RDF></metadata><path
     id="_x34_8._Student_cap_1_"
     style="fill:#ffffff"
     d="m 30.050781,5.0507812 c -0.2,0 -0.400781,0.048438 -0.550781,0.1484376 L 1.0996094,20.900391 c -0.40000003,0.2 -0.69921877,0.699218 -0.69921878,1.199218 0,0.5 0.29921876,1.001172 0.69921878,1.201172 L 10.400391,28.5 l 0,10.400391 c 0,6.4 8.5,11.40039 19.5,11.40039 11,0 19.599609,-5.10039 19.599609,-11.40039 l 0,-10.5 3.300781,-1.800782 0,9.900391 c -1.5,0.6 -2.601562,2.1 -2.601562,4 0,1.7 0.901172,3.200781 2.201172,3.800781 l -2.59961,7.59961 c -0.1,0.4 -0.10039,0.899218 0.09961,1.199218 0.2,0.4 0.6,0.59961 1,0.59961 l 6.298828,0 c 0.4,0 0.8,-0.19961 1,-0.59961 0.2,-0.4 0.301562,-0.899218 0.101562,-1.199218 l -2.601562,-7.59961 c 1.3,-0.7 2.201172,-2.100781 2.201172,-3.800781 0,-1.8 -1.09961,-3.5 -2.59961,-4 l 0,-11.199219 3.699219,-2 c 0.4,-0.2 0.699219,-0.701172 0.699219,-1.201172 -0.1,-0.6 -0.398828,-0.899218 -0.798828,-1.199218 L 30.599609,5.1992188 c -0.15,-0.1 -0.348828,-0.1484376 -0.548828,-0.1484376 z M 30,8 l 25.599609,14.099609 -1.798828,1 -23.701172,-2.40039 c -0.7,-0.1 -1.298828,0.501172 -1.298828,1.201172 -0.1,0.8 0.39961,1.40039 1.09961,1.40039 L 49.599609,25.199219 30,36.199219 4.4003906,22.099609 30,8 Z m -17.099609,21.800781 16.5,9.09961 C 29.600391,39.000391 29.8,39 30,39 c 0.2,0 0.399609,3.91e-4 0.599609,-0.09961 l 16.5,-9.09961 0,9.09961 c 0,2.1 -1.699218,4.30039 -4.699218,5.90039 C 39.100391,46.500781 34.6,47.5 30,47.5 c -4.6,0 -9.100391,-1.000781 -12.400391,-2.800781 -3,-1.6 -4.699218,-3.798438 -4.699218,-5.898438 l 0,-9 z m 41.199218,7.798828 c 1.4,0 2.5,1.200782 2.5,2.800782 0,1.7 -1.1,2.798828 -2.5,2.798828 -1.4,0 -2.5,-1.198828 -2.5,-2.798828 0,-1.5 1.1,-2.700782 2.5,-2.800782 z m 0.05078,9.175782 C 54.300391,46.775391 54.45,46.85 54.5,47 l 2,4.300781 c 0.2,0.4 -0.09961,0.898438 -0.599609,0.898438 l -3.5,0 c -0.5,0 -0.79961,-0.398828 -0.59961,-0.798828 l 2,-4.400391 c 0.05,-0.15 0.19961,-0.224609 0.34961,-0.224609 z" /></svg>