<?xml version="1.0" encoding="utf-8"?>
<!-- Generator: Adobe Illustrator 18.0.0, SVG Export Plug-In . SVG Version: 6.00 Build 0)  -->
<!DOCTYPE svg PUBLIC "-//W3C//DTD SVG 1.1//EN" "http://www.w3.org/Graphics/SVG/1.1/DTD/svg11.dtd" [
	<!ENTITY ns_extend "http://ns.adobe.com/Extensibility/1.0/">
	<!ENTITY ns_ai "http://ns.adobe.com/AdobeIllustrator/10.0/">
	<!ENTITY ns_graphs "http://ns.adobe.com/Graphs/1.0/">
	<!ENTITY ns_vars "http://ns.adobe.com/Variables/1.0/">
	<!ENTITY ns_imrep "http://ns.adobe.com/ImageReplacement/1.0/">
	<!ENTITY ns_sfw "http://ns.adobe.com/SaveForWeb/1.0/">
	<!ENTITY ns_custom "http://ns.adobe.com/GenericCustomNamespace/1.0/">
	<!ENTITY ns_adobe_xpath "http://ns.adobe.com/XPath/1.0/">
]>
<svg version="1.1" id="Livello_1" xmlns:x="&ns_extend;" xmlns:i="&ns_ai;" xmlns:graph="&ns_graphs;"
	 xmlns="http://www.w3.org/2000/svg" xmlns:xlink="http://www.w3.org/1999/xlink" x="0px" y="0px" viewBox="0 0 60 60"
	 enable-background="new 0 0 60 60" xml:space="preserve">
<metadata>
	<sfw  xmlns="&ns_sfw;">
		<slices></slices>
		<sliceSourceBounds  width="57.1" height="99.9" x="-0.8" y="-18.8" bottomLeftOrigin="true"></sliceSourceBounds>
	</sfw>
</metadata>
<g>
	<g>
		<defs>
			<rect id="SVGID_1_" x="4.1" y="0.4" width="51.6" height="78.4"/>
		</defs>
		<use xlink:href="#SVGID_1_"  overflow="visible" fill="#FFFFFF"/>
		<clipPath id="SVGID_2_">
			<use xlink:href="#SVGID_1_"  overflow="visible"/>
		</clipPath>
		<path clip-path="url(#SVGID_2_)" fill="#FFFFFF" d="M23.9,0.4c-0.4,0-0.9,0.2-1.1,0.6l-3.9,5.8H5.5c-0.7,0-1.4,0.6-1.4,1.3v13.3
			c0,0.7,0.6,1.3,1.4,1.3H19c0.7,0,1.4-0.6,1.4-1.3V10.9l-2.7,4v5.2H6.8V9.4h10.2L13.2,15l-1.7-3.3c-0.3-0.7-1.1-0.9-1.8-0.6
			c-0.7,0.3-1,1.1-0.6,1.8c0,0,0,0,0,0l2.7,5.3c0.3,0.7,1.2,0.9,1.8,0.6c0.2-0.1,0.4-0.3,0.5-0.5L25.1,2.5c0.4-0.6,0.3-1.4-0.4-1.8
			C24.5,0.5,24.2,0.4,23.9,0.4L23.9,0.4z M5.5,25.4c-0.7,0-1.4,0.6-1.4,1.3V40c0,0.7,0.6,1.3,1.4,1.3H19c0.7,0,1.4-0.6,1.4-1.3V26.7
			c0-0.7-0.6-1.3-1.4-1.3H5.5z M6.8,28h10.9v10.6H6.8V28z M29.9,30.7c-0.7,0-1.4,0.6-1.4,1.3v2.7c0,0.7,0.6,1.3,1.4,1.3h24.5
			c0.7,0,1.4-0.6,1.4-1.3V32c0-0.7-0.6-1.3-1.4-1.3H29.9z M5.5,44c-0.7,0-1.4,0.6-1.4,1.3v13.3c0,0.7,0.6,1.3,1.4,1.3H19
			c0.7,0,1.4-0.6,1.4-1.3V45.3c0-0.7-0.6-1.3-1.4-1.3H5.5z M6.8,46.6h10.9v10.6H6.8V46.6z M29.9,49.3c-0.7,0-1.4,0.6-1.4,1.3v2.7
			c0,0.7,0.6,1.3,1.4,1.3h24.5c0.7,0,1.4-0.6,1.4-1.3v-2.7c0-0.7-0.6-1.3-1.4-1.3H29.9z M29.9,67.9"/>
	</g>
</g>
<path fill="#FFFFFF" d="M30.5,13.3c-0.7,0-1.4,0.6-1.4,1.3v2.7c0,0.7,0.6,1.3,1.4,1.3h24.5c0.7,0,1.4-0.6,1.4-1.3v-2.7
	c0-0.7-0.6-1.3-1.4-1.3H30.5z"/>
<line fill="#FFFFFF" x1="56.3" y1="-16.4" x2="56.3" y2="62"/>
</svg>
