<?xml version="1.0" encoding="UTF-8" standalone="no"?>
<!-- Generator: Adobe Illustrator 18.0.0, SVG Export Plug-In . SVG Version: 6.00 Build 0)  -->

<svg
   xmlns:ns="&amp;ns_sfw;"
   xmlns:dc="http://purl.org/dc/elements/1.1/"
   xmlns:cc="http://creativecommons.org/ns#"
   xmlns:rdf="http://www.w3.org/1999/02/22-rdf-syntax-ns#"
   xmlns:svg="http://www.w3.org/2000/svg"
   xmlns="http://www.w3.org/2000/svg"
   xmlns:xlink="http://www.w3.org/1999/xlink"
   xmlns:sodipodi="http://sodipodi.sourceforge.net/DTD/sodipodi-0.dtd"
   xmlns:inkscape="http://www.inkscape.org/namespaces/inkscape"
   version="1.1"
   id="Livello_1"
   x="0px"
   y="0px"
   viewBox="0 0 60 60"
   enable-background="new 0 0 60 60"
   xml:space="preserve"
   inkscape:version="0.91 r13725"
   sodipodi:docname="store.svg"><defs
     id="defs25" /><sodipodi:namedview
     pagecolor="#ffffff"
     bordercolor="#666666"
     borderopacity="1"
     objecttolerance="10"
     gridtolerance="10"
     guidetolerance="10"
     inkscape:pageopacity="0"
     inkscape:pageshadow="2"
     inkscape:window-width="755"
     inkscape:window-height="480"
     id="namedview23"
     showgrid="false"
     inkscape:zoom="3.9333333"
     inkscape:cx="30"
     inkscape:cy="30"
     inkscape:window-x="235"
     inkscape:window-y="254"
     inkscape:window-maximized="0"
     inkscape:current-layer="Livello_1" /><metadata
     id="metadata3"><ns:sfw><ns:slices /><ns:sliceSourceBounds
         width="59.8"
         height="53.8"
         x="0.3"
         y="1.9"
         bottomLeftOrigin="true" /></ns:sfw><rdf:RDF><cc:Work
         rdf:about=""><dc:format>image/svg+xml</dc:format><dc:type
           rdf:resource="http://purl.org/dc/dcmitype/StillImage" /></cc:Work></rdf:RDF></metadata><g
     id="g7"><defs
       id="defs9"><rect
         height="53.799999"
         width="59.799999"
         y="4.3000002"
         x="0.30000001"
         id="SVGID_1_" /></defs><use
       height="100%"
       width="100%"
       y="0"
       x="0"
       style="overflow:visible;fill:#ffffff"
       id="use12"
       overflow="visible"
       xlink:href="#SVGID_1_" /><clipPath
       id="SVGID_2_"><use
         height="100%"
         width="100%"
         y="0"
         x="0"
         style="overflow:visible"
         id="use15"
         overflow="visible"
         xlink:href="#SVGID_1_" /></clipPath></g><path
     id="path21"
     style="fill:#ffffff"
     d="m 49.1,58 0.4,0 c 1.3,-0.1 2.5,-0.7 3.4,-1.7 0.9,-1 1.3,-2.3 1.2,-3.6 C 53.9,50 51.5,47.9 48.8,48.1 46,48.3 44,50.7 44.2,53.4 44.3,56 46.5,58 49.1,58 l 0,0 z m 0,0 m -31.3,0 c 2.8,0 5,-2.2 5,-5 0,-2.8 -2.2,-5 -5,-5 -2.8,0 -5,2.2 -5,5 0,2.8 2.3,5 5,5 l 0,0 z m 0,0 M 2.5,8.7 l 6.3,0 9,32.3 c 0.3,0.9 1.1,1.6 2.1,1.6 l 27.7,0 c 0.9,0 1.7,-0.5 2,-1.3 l 10.1,-23 c 0.3,-0.7 0.2,-1.5 -0.2,-2.1 -0.4,-0.6 -1.1,-1 -1.8,-1 l -30.6,0 c -1.2,0 -2.2,1 -2.2,2.2 0,1.2 1,2.2 2.2,2.2 l 27.2,0 -8.2,18.6 -24.5,0 -9,-32.3 C 12.3,5 11.5,4.3 10.5,4.3 l -8,0 c -1.2,0 -2.2,1 -2.2,2.2 0,1.2 0.9,2.2 2.2,2.2 l 0,0 z m 0,0" /></svg>